<svg xmlns="http://www.w3.org/2000/svg" width="24" height="24" viewBox="0 0 24 24" fill="none" stroke="#9333ea" stroke-width="2" stroke-linecap="round" stroke-linejoin="round">
  <path d="M12 2a9 9 0 0 0-9 9c0 4.17 2.84 7.67 6.69 8.69a.5.5 0 0 0 .62-.45V17.5c0-.24-.2-.43-.44-.5-1.08-.32-1.87-.52-2.35-1.16-.43-.57-.57-.93-.57-1.4 0-.51.44-.93.97-.93.56 0 .78.36.97.72.23.44.71.87 1.44.87.73 0 1.22-.22 1.22-.66 0-.33-.17-.57-.53-.78-.71-.44-1.49-1.15-1.49-2.67 0-1.4.61-2.25 1.44-2.7-.22-.22-.39-.5-.39-.83 0-.44.36-.8.8-.8.44 0 .8.36.8.8 0 .33-.17.61-.39.83.83.45 1.44 1.3 1.44 2.7 0 1.52-.78 2.23-1.49 2.67-.36.21-.53.45-.53.78 0 .44.49.66 1.22.66.73 0 1.21-.43 1.44-.87.19-.36.41-.72.97-.72.53 0 .97.42.97.93 0 .47-.14.83-.57 1.4-.48.64-1.27.84-2.35 1.16-.24.07-.44.26-.44.5v1.74a.5.5 0 0 0 .62.45C18.16 18.67 21 15.17 21 11a9 9 0 0 0-9-9z"/>
</svg>