<svg xmlns="http://www.w3.org/2000/svg" xmlns:xlink="http://www.w3.org/1999/xlink" width="1080" zoomAndPan="magnify" viewBox="0 0 810 1012.49997" height="1350" preserveAspectRatio="xMidYMid meet" version="1.0"><defs><clipPath id="bc08d8a80e"><path d="M 0.199219 0 L 809.800781 0 L 809.800781 1012 L 0.199219 1012 Z M 0.199219 0 " clip-rule="nonzero"/></clipPath><clipPath id="edcf265aae"><path d="M 259.523438 342 L 550.382812 342 L 550.382812 507 L 259.523438 507 Z M 259.523438 342 " clip-rule="nonzero"/></clipPath><clipPath id="22171a1ff3"><path d="M 259.523438 411 L 338 411 L 338 570 L 259.523438 570 Z M 259.523438 411 " clip-rule="nonzero"/></clipPath><clipPath id="34db02e684"><path d="M 329 657 L 481 657 L 481 708.398438 L 329 708.398438 Z M 329 657 " clip-rule="nonzero"/></clipPath><clipPath id="d59a00f66f"><path d="M 472 411 L 550.382812 411 L 550.382812 570 L 472 570 Z M 472 411 " clip-rule="nonzero"/></clipPath></defs><g clip-path="url(#bc08d8a80e)"><path fill="#ffffff" d="M 0.199219 0 L 809.800781 0 L 809.800781 1012 L 0.199219 1012 Z M 0.199219 0 " fill-opacity="1" fill-rule="nonzero"/><path fill="#ffffff" d="M 0.199219 0 L 809.800781 0 L 809.800781 1012 L 0.199219 1012 Z M 0.199219 0 " fill-opacity="1" fill-rule="nonzero"/></g><g clip-path="url(#edcf265aae)"><path fill="#cb6ce6" d="M 405 506.316406 C 324.90625 506.316406 259.75 466.65625 259.75 417.902344 C 259.75 387.332031 284.875 359.402344 326.953125 343.191406 C 327.339844 343.039062 327.738281 342.929688 328.144531 342.859375 C 328.554688 342.789062 328.964844 342.757812 329.378906 342.769531 C 329.796875 342.78125 330.203125 342.832031 330.609375 342.921875 C 331.015625 343.011719 331.40625 343.144531 331.785156 343.3125 C 332.164062 343.480469 332.523438 343.683594 332.863281 343.921875 C 333.203125 344.160156 333.515625 344.429688 333.800781 344.730469 C 334.085938 345.03125 334.339844 345.359375 334.5625 345.710938 C 334.78125 346.058594 334.96875 346.429688 335.117188 346.816406 C 335.265625 347.203125 335.375 347.601562 335.445312 348.011719 C 335.515625 348.417969 335.546875 348.832031 335.535156 349.246094 C 335.523438 349.660156 335.472656 350.070312 335.382812 350.476562 C 335.292969 350.878906 335.160156 351.273438 334.992188 351.652344 C 334.824219 352.03125 334.621094 352.386719 334.378906 352.726562 C 334.140625 353.066406 333.871094 353.378906 333.570312 353.664062 C 333.269531 353.949219 332.945312 354.203125 332.59375 354.425781 C 332.242188 354.644531 331.871094 354.832031 331.484375 354.980469 C 294.484375 369.234375 272.382812 392.761719 272.382812 417.902344 C 272.382812 459.691406 331.878906 493.6875 405 493.6875 C 478.121094 493.6875 537.617188 459.691406 537.617188 417.902344 C 537.617188 392.761719 515.515625 369.234375 478.515625 354.980469 C 478.128906 354.832031 477.757812 354.644531 477.40625 354.425781 C 477.058594 354.203125 476.730469 353.949219 476.429688 353.664062 C 476.128906 353.378906 475.859375 353.066406 475.621094 352.726562 C 475.382812 352.386719 475.179688 352.027344 475.011719 351.648438 C 474.839844 351.269531 474.710938 350.878906 474.621094 350.476562 C 474.527344 350.070312 474.476562 349.660156 474.46875 349.246094 C 474.457031 348.832031 474.488281 348.421875 474.558594 348.011719 C 474.628906 347.601562 474.738281 347.203125 474.886719 346.816406 C 475.035156 346.429688 475.21875 346.0625 475.441406 345.710938 C 475.664062 345.359375 475.917969 345.035156 476.203125 344.734375 C 476.488281 344.433594 476.800781 344.164062 477.140625 343.925781 C 477.476562 343.683594 477.835938 343.480469 478.214844 343.3125 C 478.59375 343.144531 478.988281 343.015625 479.390625 342.921875 C 479.796875 342.832031 480.207031 342.78125 480.621094 342.769531 C 481.035156 342.761719 481.445312 342.789062 481.855469 342.859375 C 482.265625 342.929688 482.660156 343.039062 483.046875 343.191406 C 525.125 359.402344 550.25 387.332031 550.25 417.902344 C 550.25 466.65625 485.09375 506.316406 405 506.316406 Z M 405 506.316406 " fill-opacity="1" fill-rule="nonzero"/></g><g clip-path="url(#22171a1ff3)"><path fill="#cb6ce6" d="M 331.207031 569.46875 C 330.285156 569.46875 329.40625 569.277344 328.566406 568.890625 C 327.730469 568.503906 327.011719 567.960938 326.414062 567.257812 C 260.507812 490.167969 259.75 420.816406 259.75 417.902344 C 259.75 417.488281 259.792969 417.078125 259.875 416.671875 C 259.953125 416.265625 260.074219 415.871094 260.234375 415.488281 C 260.390625 415.105469 260.585938 414.738281 260.816406 414.394531 C 261.046875 414.050781 261.308594 413.730469 261.601562 413.4375 C 261.894531 413.144531 262.214844 412.882812 262.558594 412.652344 C 262.902344 412.421875 263.265625 412.226562 263.648438 412.070312 C 264.035156 411.910156 264.429688 411.792969 264.835938 411.710938 C 265.242188 411.628906 265.652344 411.589844 266.066406 411.589844 C 266.480469 411.589844 266.890625 411.628906 267.300781 411.710938 C 267.707031 411.792969 268.101562 411.910156 268.484375 412.070312 C 268.867188 412.226562 269.230469 412.421875 269.574219 412.652344 C 269.921875 412.882812 270.238281 413.144531 270.53125 413.4375 C 270.824219 413.730469 271.085938 414.050781 271.316406 414.394531 C 271.546875 414.738281 271.742188 415.105469 271.902344 415.488281 C 272.058594 415.871094 272.179688 416.265625 272.261719 416.671875 C 272.339844 417.078125 272.382812 417.488281 272.382812 417.902344 C 272.382812 418.574219 273.335938 485.746094 336.007812 559.066406 C 336.398438 559.523438 336.714844 560.03125 336.960938 560.578125 C 337.203125 561.128906 337.367188 561.703125 337.449219 562.296875 C 337.53125 562.894531 337.527344 563.488281 337.4375 564.085938 C 337.347656 564.679688 337.179688 565.25 336.925781 565.796875 C 336.675781 566.34375 336.351562 566.84375 335.953125 567.296875 C 335.558594 567.753906 335.109375 568.140625 334.601562 568.46875 C 334.097656 568.792969 333.554688 569.039062 332.976562 569.210938 C 332.398438 569.378906 331.808594 569.464844 331.207031 569.46875 Z M 331.207031 569.46875 " fill-opacity="1" fill-rule="nonzero"/></g><g clip-path="url(#34db02e684)"><path fill="#cb6ce6" d="M 474.464844 708.398438 L 335.535156 708.398438 C 335.054688 708.398438 334.578125 708.347656 334.113281 708.238281 C 333.644531 708.128906 333.195312 707.972656 332.761719 707.761719 C 332.332031 707.550781 331.929688 707.292969 331.558594 706.992188 C 331.183594 706.6875 330.851562 706.347656 330.554688 705.96875 C 330.261719 705.589844 330.011719 705.183594 329.808594 704.75 C 329.605469 704.316406 329.453125 703.863281 329.355469 703.394531 C 329.257812 702.921875 329.210938 702.449219 329.21875 701.96875 C 329.226562 701.488281 329.292969 701.015625 329.40625 700.550781 C 333.054688 686.394531 338.808594 673.15625 346.679688 660.835938 C 346.894531 660.472656 347.144531 660.140625 347.429688 659.828125 C 347.710938 659.519531 348.023438 659.238281 348.363281 658.992188 C 348.699219 658.742188 349.0625 658.53125 349.441406 658.355469 C 349.824219 658.179688 350.21875 658.039062 350.625 657.941406 C 351.035156 657.84375 351.449219 657.789062 351.871094 657.773438 C 352.289062 657.757812 352.707031 657.785156 353.121094 657.855469 C 353.535156 657.921875 353.9375 658.03125 354.332031 658.179688 C 354.722656 658.328125 355.097656 658.515625 355.453125 658.738281 C 355.808594 658.960938 356.140625 659.21875 356.445312 659.507812 C 356.75 659.796875 357.023438 660.113281 357.261719 660.457031 C 357.503906 660.800781 357.710938 661.164062 357.878906 661.550781 C 358.046875 661.933594 358.175781 662.332031 358.265625 662.742188 C 358.355469 663.152344 358.402344 663.570312 358.410156 663.988281 C 358.414062 664.410156 358.378906 664.824219 358.304688 665.238281 C 358.226562 665.652344 358.109375 666.054688 357.953125 666.441406 C 357.796875 666.832031 357.601562 667.203125 357.371094 667.554688 C 351.746094 676.414062 347.265625 685.816406 343.933594 695.769531 L 466.066406 695.769531 C 462.734375 685.816406 458.253906 676.414062 452.628906 667.554688 C 452.398438 667.203125 452.203125 666.832031 452.046875 666.441406 C 451.890625 666.054688 451.773438 665.652344 451.695312 665.238281 C 451.621094 664.824219 451.585938 664.410156 451.589844 663.988281 C 451.597656 663.570312 451.644531 663.152344 451.734375 662.742188 C 451.824219 662.332031 451.953125 661.933594 452.121094 661.550781 C 452.289062 661.164062 452.496094 660.800781 452.738281 660.457031 C 452.976562 660.113281 453.25 659.796875 453.554688 659.507812 C 453.859375 659.21875 454.191406 658.960938 454.546875 658.738281 C 454.902344 658.515625 455.277344 658.328125 455.667969 658.179688 C 456.0625 658.03125 456.464844 657.921875 456.878906 657.855469 C 457.292969 657.785156 457.710938 657.757812 458.128906 657.773438 C 458.550781 657.789062 458.964844 657.84375 459.375 657.941406 C 459.78125 658.039062 460.175781 658.175781 460.558594 658.355469 C 460.9375 658.53125 461.300781 658.742188 461.636719 658.992188 C 461.976562 659.238281 462.289062 659.519531 462.570312 659.828125 C 462.855469 660.140625 463.105469 660.472656 463.320312 660.835938 C 471.191406 673.15625 476.945312 686.394531 480.59375 700.550781 C 480.707031 701.015625 480.773438 701.488281 480.78125 701.96875 C 480.789062 702.449219 480.742188 702.921875 480.644531 703.394531 C 480.546875 703.863281 480.394531 704.316406 480.191406 704.75 C 479.988281 705.183594 479.738281 705.589844 479.445312 705.96875 C 479.148438 706.347656 478.816406 706.6875 478.441406 706.992188 C 478.070312 707.292969 477.667969 707.550781 477.238281 707.761719 C 476.804688 707.972656 476.355469 708.128906 475.886719 708.238281 C 475.421875 708.347656 474.945312 708.398438 474.464844 708.398438 Z M 474.464844 708.398438 " fill-opacity="1" fill-rule="nonzero"/></g><g clip-path="url(#d59a00f66f)"><path fill="#cb6ce6" d="M 478.792969 569.46875 C 478.1875 569.464844 477.597656 569.382812 477.019531 569.210938 C 476.441406 569.042969 475.898438 568.792969 475.390625 568.46875 C 474.882812 568.144531 474.429688 567.753906 474.035156 567.300781 C 473.636719 566.84375 473.3125 566.34375 473.0625 565.796875 C 472.808594 565.246094 472.640625 564.675781 472.550781 564.078125 C 472.460938 563.484375 472.460938 562.886719 472.542969 562.289062 C 472.625 561.691406 472.789062 561.117188 473.035156 560.566406 C 473.28125 560.015625 473.601562 559.511719 473.992188 559.054688 C 536.890625 485.476562 537.617188 418.566406 537.617188 417.902344 C 537.617188 417.488281 537.660156 417.078125 537.738281 416.671875 C 537.820312 416.265625 537.941406 415.871094 538.097656 415.488281 C 538.257812 415.105469 538.453125 414.738281 538.683594 414.394531 C 538.914062 414.050781 539.175781 413.730469 539.46875 413.4375 C 539.761719 413.144531 540.078125 412.882812 540.425781 412.652344 C 540.769531 412.421875 541.132812 412.226562 541.515625 412.070312 C 541.898438 411.910156 542.292969 411.792969 542.699219 411.710938 C 543.109375 411.628906 543.519531 411.589844 543.933594 411.589844 C 544.347656 411.589844 544.757812 411.628906 545.164062 411.710938 C 545.570312 411.792969 545.964844 411.910156 546.347656 412.070312 C 546.734375 412.226562 547.097656 412.421875 547.441406 412.652344 C 547.785156 412.882812 548.105469 413.144531 548.398438 413.4375 C 548.691406 413.730469 548.953125 414.050781 549.183594 414.394531 C 549.414062 414.738281 549.609375 415.105469 549.765625 415.488281 C 549.925781 415.871094 550.046875 416.265625 550.125 416.671875 C 550.207031 417.078125 550.246094 417.488281 550.25 417.902344 C 550.25 420.816406 549.492188 490.167969 483.585938 567.257812 C 482.988281 567.960938 482.269531 568.503906 481.433594 568.890625 C 480.59375 569.277344 479.714844 569.46875 478.792969 569.46875 Z M 478.792969 569.46875 " fill-opacity="1" fill-rule="nonzero"/></g><path fill="#cb6ce6" d="M 461.488281 493.6875 C 459.8125 493.773438 458.144531 493.699219 456.480469 493.464844 C 454.820312 493.230469 453.195312 492.835938 451.609375 492.285156 C 450.023438 491.734375 448.503906 491.039062 447.054688 490.191406 C 445.601562 489.347656 444.246094 488.371094 442.984375 487.261719 C 434.144531 478.421875 436.871094 463.113281 437.214844 461.371094 C 437.335938 460.753906 437.542969 460.171875 437.839844 459.617188 C 438.132812 459.066406 438.503906 458.566406 438.945312 458.125 C 439.390625 457.679688 439.890625 457.3125 440.441406 457.015625 C 440.996094 456.722656 441.582031 456.515625 442.195312 456.394531 C 443.914062 456.054688 459.246094 453.351562 468.054688 462.160156 C 476.898438 471 474.167969 486.308594 473.828125 488.050781 C 473.707031 488.667969 473.5 489.25 473.203125 489.804688 C 472.910156 490.359375 472.539062 490.855469 472.09375 491.300781 C 471.652344 491.742188 471.152344 492.113281 470.597656 492.40625 C 470.046875 492.699219 469.460938 492.910156 468.847656 493.027344 C 466.414062 493.476562 463.960938 493.695312 461.488281 493.6875 Z M 467.632812 486.832031 Z M 449.207031 468.425781 C 449.039062 470.191406 449.1875 471.925781 449.65625 473.636719 C 450.121094 475.347656 450.878906 476.917969 451.921875 478.351562 C 453.351562 479.394531 454.921875 480.148438 456.632812 480.613281 C 458.339844 481.078125 460.074219 481.226562 461.835938 481.054688 C 462.003906 479.289062 461.855469 477.554688 461.386719 475.84375 C 460.917969 474.132812 460.164062 472.5625 459.121094 471.128906 C 457.683594 470.097656 456.113281 469.347656 454.40625 468.882812 C 452.699219 468.417969 450.96875 468.265625 449.207031 468.425781 Z M 449.207031 468.425781 " fill-opacity="1" fill-rule="nonzero"/><path fill="#cb6ce6" d="M 348.511719 493.6875 C 346.039062 493.703125 343.585938 493.492188 341.152344 493.054688 C 340.539062 492.933594 339.953125 492.726562 339.402344 492.429688 C 338.847656 492.136719 338.347656 491.769531 337.90625 491.324219 C 337.460938 490.882812 337.089844 490.382812 336.796875 489.832031 C 336.5 489.277344 336.292969 488.691406 336.171875 488.078125 C 335.832031 486.355469 333.121094 471.027344 341.945312 462.1875 C 350.765625 453.34375 366.085938 456.078125 367.804688 456.421875 C 368.417969 456.539062 369.003906 456.746094 369.558594 457.042969 C 370.109375 457.335938 370.609375 457.707031 371.054688 458.148438 C 371.496094 458.59375 371.867188 459.089844 372.160156 459.644531 C 372.457031 460.195312 372.664062 460.78125 372.785156 461.394531 C 373.128906 463.121094 375.835938 478.445312 367.015625 487.289062 C 365.753906 488.394531 364.394531 489.367188 362.945312 490.210938 C 361.492188 491.054688 359.976562 491.75 358.390625 492.296875 C 356.804688 492.847656 355.179688 493.238281 353.515625 493.46875 C 351.855469 493.703125 350.1875 493.777344 348.511719 493.6875 Z M 348.164062 481.054688 C 349.929688 481.238281 351.664062 481.09375 353.375 480.628906 C 355.085938 480.164062 356.65625 479.402344 358.085938 478.351562 C 359.128906 476.917969 359.882812 475.347656 360.347656 473.636719 C 360.816406 471.925781 360.964844 470.191406 360.792969 468.425781 C 359.027344 468.230469 357.289062 468.367188 355.578125 468.832031 C 353.863281 469.300781 352.296875 470.066406 350.871094 471.128906 C 349.832031 472.5625 349.078125 474.132812 348.609375 475.84375 C 348.144531 477.554688 347.996094 479.289062 348.164062 481.054688 Z M 346.40625 466.664062 Z M 346.40625 466.664062 " fill-opacity="1" fill-rule="nonzero"/><path fill="#cb6ce6" d="M 389.734375 392.644531 C 389.476562 392.644531 389.214844 392.625 388.957031 392.59375 C 388.699219 392.5625 388.441406 392.511719 388.1875 392.449219 C 387.9375 392.382812 387.6875 392.304688 387.445312 392.210938 C 387.203125 392.113281 386.964844 392.003906 386.738281 391.878906 C 386.507812 391.757812 386.285156 391.617188 386.074219 391.464844 C 385.863281 391.3125 385.660156 391.148438 385.46875 390.972656 C 385.277344 390.796875 385.09375 390.609375 384.925781 390.410156 C 384.757812 390.210938 384.601562 390 384.460938 389.785156 C 384.316406 389.566406 384.1875 389.339844 384.074219 389.105469 C 383.957031 388.871094 383.859375 388.628906 383.773438 388.382812 C 383.6875 388.136719 383.621094 387.882812 383.566406 387.628906 C 383.511719 387.375 383.476562 387.117188 383.453125 386.855469 C 383.429688 386.597656 383.425781 386.335938 383.4375 386.074219 C 383.445312 385.8125 383.472656 385.554688 383.515625 385.296875 C 383.558594 385.039062 383.617188 384.785156 383.691406 384.535156 C 383.765625 384.285156 383.855469 384.042969 383.957031 383.800781 C 385.363281 380.582031 386.0625 377.210938 386.054688 373.699219 L 386.054688 342.828125 C 382.164062 343.4375 378.449219 344.601562 374.90625 346.316406 C 371.363281 348.035156 368.148438 350.226562 365.257812 352.902344 C 364.964844 353.1875 364.644531 353.441406 364.300781 353.664062 C 363.957031 353.886719 363.59375 354.074219 363.210938 354.226562 C 362.832031 354.378906 362.4375 354.492188 362.035156 354.566406 C 361.632812 354.640625 361.226562 354.679688 360.816406 354.675781 C 360.40625 354.671875 360 354.628906 359.597656 354.546875 C 359.199219 354.460938 358.808594 354.34375 358.429688 354.183594 C 358.050781 354.023438 357.691406 353.832031 357.351562 353.601562 C 357.011719 353.375 356.695312 353.117188 356.40625 352.824219 C 356.117188 352.535156 355.855469 352.21875 355.628906 351.878906 C 355.398438 351.539062 355.207031 351.179688 355.046875 350.800781 C 354.890625 350.421875 354.769531 350.035156 354.6875 349.632812 C 354.601562 349.230469 354.558594 348.824219 354.558594 348.414062 C 354.554688 348.003906 354.589844 347.597656 354.664062 347.195312 C 354.742188 346.792969 354.855469 346.398438 355.007812 346.019531 C 355.160156 345.636719 355.34375 345.277344 355.566406 344.933594 C 355.789062 344.585938 356.042969 344.269531 356.328125 343.972656 C 358.777344 341.738281 361.40625 339.742188 364.214844 337.976562 C 367.023438 336.214844 369.964844 334.714844 373.042969 333.480469 C 376.117188 332.242188 379.28125 331.289062 382.527344 330.621094 C 385.773438 329.949219 389.054688 329.574219 392.371094 329.492188 C 392.785156 329.492188 393.195312 329.53125 393.601562 329.613281 C 394.007812 329.695312 394.402344 329.8125 394.785156 329.972656 C 395.167969 330.132812 395.535156 330.324219 395.878906 330.554688 C 396.222656 330.785156 396.542969 331.046875 396.835938 331.339844 C 397.128906 331.636719 397.390625 331.953125 397.621094 332.296875 C 397.851562 332.644531 398.046875 333.007812 398.203125 333.390625 C 398.363281 333.773438 398.484375 334.167969 398.5625 334.574219 C 398.644531 334.980469 398.683594 335.390625 398.683594 335.808594 L 398.683594 373.699219 C 398.695312 378.972656 397.644531 384.023438 395.527344 388.855469 C 395.28125 389.417969 394.960938 389.933594 394.5625 390.402344 C 394.167969 390.875 393.710938 391.277344 393.195312 391.613281 C 392.683594 391.949219 392.132812 392.207031 391.542969 392.378906 C 390.953125 392.554688 390.351562 392.644531 389.734375 392.644531 Z M 389.734375 392.644531 " fill-opacity="1" fill-rule="nonzero"/><path fill="#cb6ce6" d="M 360.792969 411.589844 C 358.242188 411.585938 355.71875 411.335938 353.214844 410.832031 C 352.808594 410.746094 352.414062 410.625 352.03125 410.464844 C 351.652344 410.304688 351.289062 410.109375 350.945312 409.875 C 350.601562 409.644531 350.285156 409.378906 349.992188 409.085938 C 349.699219 408.792969 349.441406 408.472656 349.210938 408.125 C 348.984375 407.777344 348.789062 407.414062 348.632812 407.03125 C 348.476562 406.644531 348.359375 406.25 348.28125 405.84375 C 348.199219 405.4375 348.164062 405.027344 348.164062 404.609375 C 348.167969 404.195312 348.210938 403.785156 348.292969 403.378906 C 348.375 402.972656 348.496094 402.578125 348.65625 402.195312 C 348.816406 401.8125 349.015625 401.453125 349.246094 401.109375 C 349.476562 400.765625 349.742188 400.445312 350.035156 400.15625 C 350.332031 399.863281 350.652344 399.601562 350.996094 399.375 C 351.34375 399.144531 351.707031 398.953125 352.089844 398.796875 C 352.476562 398.640625 352.871094 398.519531 353.277344 398.441406 C 353.683594 398.363281 354.097656 398.324219 354.511719 398.328125 C 354.925781 398.328125 355.335938 398.371094 355.742188 398.453125 C 358.289062 398.96875 360.855469 399.09375 363.441406 398.820312 C 366.027344 398.546875 368.515625 397.890625 370.898438 396.855469 C 371.277344 396.691406 371.667969 396.566406 372.074219 396.480469 C 372.476562 396.394531 372.886719 396.347656 373.300781 396.34375 C 373.714844 396.335938 374.121094 396.371094 374.53125 396.445312 C 374.9375 396.519531 375.332031 396.632812 375.714844 396.785156 C 376.101562 396.9375 376.464844 397.125 376.8125 397.347656 C 377.160156 397.570312 377.484375 397.828125 377.78125 398.113281 C 378.078125 398.402344 378.34375 398.714844 378.578125 399.054688 C 378.816406 399.394531 379.015625 399.753906 379.179688 400.132812 C 379.347656 400.507812 379.472656 400.902344 379.5625 401.304688 C 379.652344 401.707031 379.699219 402.117188 379.707031 402.53125 C 379.714844 402.941406 379.683594 403.351562 379.613281 403.757812 C 379.539062 404.167969 379.429688 404.5625 379.277344 404.949219 C 379.128906 405.332031 378.941406 405.699219 378.71875 406.046875 C 378.5 406.398438 378.246094 406.71875 377.960938 407.019531 C 377.675781 407.316406 377.363281 407.585938 377.023438 407.824219 C 376.6875 408.0625 376.328125 408.265625 375.949219 408.429688 C 371.121094 410.546875 366.066406 411.601562 360.792969 411.589844 Z M 360.792969 411.589844 " fill-opacity="1" fill-rule="nonzero"/><path fill="#cb6ce6" d="M 373.425781 380.011719 C 373.007812 380.011719 372.597656 379.972656 372.191406 379.890625 C 371.785156 379.8125 371.390625 379.691406 371.007812 379.53125 C 370.625 379.375 370.261719 379.179688 369.914062 378.949219 C 369.570312 378.71875 369.253906 378.457031 368.957031 378.164062 C 368.664062 377.871094 368.402344 377.550781 368.171875 377.207031 C 367.941406 376.863281 367.75 376.496094 367.589844 376.113281 C 367.429688 375.730469 367.3125 375.335938 367.230469 374.929688 C 367.148438 374.523438 367.109375 374.113281 367.109375 373.699219 C 367.109375 360.191406 348.515625 349.839844 335.535156 344.648438 L 335.535156 367.382812 C 335.535156 367.796875 335.492188 368.207031 335.414062 368.613281 C 335.332031 369.023438 335.210938 369.417969 335.054688 369.800781 C 334.894531 370.183594 334.699219 370.546875 334.46875 370.890625 C 334.238281 371.234375 333.976562 371.554688 333.683594 371.847656 C 333.390625 372.140625 333.070312 372.402344 332.726562 372.632812 C 332.382812 372.863281 332.019531 373.058594 331.636719 373.21875 C 331.253906 373.375 330.855469 373.496094 330.449219 373.578125 C 330.042969 373.65625 329.632812 373.699219 329.21875 373.699219 C 328.804688 373.699219 328.394531 373.65625 327.988281 373.578125 C 327.578125 373.496094 327.183594 373.375 326.800781 373.21875 C 326.417969 373.058594 326.054688 372.863281 325.710938 372.632812 C 325.363281 372.402344 325.046875 372.140625 324.753906 371.847656 C 324.460938 371.554688 324.199219 371.234375 323.96875 370.890625 C 323.738281 370.546875 323.542969 370.183594 323.382812 369.800781 C 323.226562 369.417969 323.105469 369.023438 323.023438 368.613281 C 322.945312 368.207031 322.902344 367.796875 322.902344 367.382812 L 322.902344 335.808594 C 322.902344 335.320312 322.960938 334.835938 323.070312 334.363281 C 323.183594 333.886719 323.347656 333.429688 323.566406 332.992188 C 323.785156 332.554688 324.050781 332.148438 324.363281 331.773438 C 324.675781 331.398438 325.027344 331.0625 325.414062 330.769531 C 325.804688 330.476562 326.222656 330.230469 326.671875 330.035156 C 327.117188 329.835938 327.582031 329.691406 328.0625 329.605469 C 328.539062 329.515625 329.023438 329.480469 329.511719 329.503906 C 330 329.527344 330.480469 329.605469 330.949219 329.738281 C 332.945312 330.300781 379.738281 344.015625 379.738281 373.699219 C 379.738281 374.113281 379.699219 374.523438 379.617188 374.929688 C 379.539062 375.335938 379.417969 375.730469 379.257812 376.113281 C 379.101562 376.496094 378.90625 376.863281 378.675781 377.207031 C 378.445312 377.550781 378.183594 377.871094 377.890625 378.164062 C 377.597656 378.457031 377.277344 378.71875 376.933594 378.949219 C 376.589844 379.179688 376.222656 379.375 375.839844 379.53125 C 375.457031 379.691406 375.0625 379.8125 374.65625 379.890625 C 374.25 379.972656 373.839844 380.011719 373.425781 380.011719 Z M 373.425781 380.011719 " fill-opacity="1" fill-rule="nonzero"/><path fill="#cb6ce6" d="M 386.054688 342.121094 C 385.640625 342.121094 385.230469 342.082031 384.824219 342 C 384.414062 341.921875 384.019531 341.800781 383.636719 341.640625 C 383.253906 341.484375 382.890625 341.289062 382.546875 341.058594 C 382.203125 340.828125 381.882812 340.566406 381.589844 340.273438 C 381.296875 339.980469 381.035156 339.660156 380.804688 339.316406 C 380.574219 338.972656 380.378906 338.605469 380.21875 338.222656 C 380.0625 337.839844 379.941406 337.445312 379.859375 337.039062 C 379.78125 336.632812 379.738281 336.222656 379.738281 335.808594 C 379.738281 333.3125 371.1875 327.421875 360.792969 323.5625 C 350.398438 327.421875 341.847656 333.3125 341.847656 335.808594 C 341.847656 336.222656 341.808594 336.632812 341.726562 337.039062 C 341.644531 337.445312 341.527344 337.839844 341.367188 338.222656 C 341.210938 338.605469 341.015625 338.972656 340.785156 339.316406 C 340.554688 339.660156 340.292969 339.980469 340 340.273438 C 339.707031 340.566406 339.386719 340.828125 339.042969 341.058594 C 338.695312 341.289062 338.332031 341.484375 337.949219 341.640625 C 337.566406 341.800781 337.171875 341.921875 336.765625 342 C 336.359375 342.082031 335.949219 342.121094 335.535156 342.121094 C 335.117188 342.121094 334.707031 342.082031 334.300781 342 C 333.894531 341.921875 333.5 341.800781 333.117188 341.640625 C 332.734375 341.484375 332.371094 341.289062 332.023438 341.058594 C 331.679688 340.828125 331.359375 340.566406 331.066406 340.273438 C 330.773438 339.980469 330.511719 339.660156 330.28125 339.316406 C 330.050781 338.972656 329.859375 338.605469 329.699219 338.222656 C 329.539062 337.839844 329.421875 337.445312 329.339844 337.039062 C 329.257812 336.632812 329.21875 336.222656 329.21875 335.808594 C 329.21875 321.914062 351.84375 313.207031 358.785156 310.875 C 360.125 310.425781 361.464844 310.425781 362.800781 310.875 C 369.742188 313.207031 392.371094 321.914062 392.371094 335.808594 C 392.371094 336.222656 392.328125 336.632812 392.25 337.039062 C 392.167969 337.445312 392.046875 337.839844 391.890625 338.222656 C 391.730469 338.605469 391.535156 338.972656 391.304688 339.316406 C 391.074219 339.660156 390.8125 339.980469 390.519531 340.273438 C 390.226562 340.566406 389.90625 340.828125 389.5625 341.058594 C 389.21875 341.289062 388.855469 341.484375 388.472656 341.640625 C 388.089844 341.800781 387.691406 341.921875 387.285156 342 C 386.878906 342.082031 386.46875 342.121094 386.054688 342.121094 Z M 386.054688 342.121094 " fill-opacity="1" fill-rule="nonzero"/><path fill="#cb6ce6" d="M 420.261719 392.644531 C 419.648438 392.644531 419.046875 392.554688 418.457031 392.378906 C 417.867188 392.207031 417.316406 391.949219 416.804688 391.613281 C 416.289062 391.277344 415.832031 390.875 415.4375 390.402344 C 415.039062 389.933594 414.71875 389.417969 414.472656 388.855469 C 412.355469 384.023438 411.304688 378.972656 411.316406 373.699219 L 411.316406 335.808594 C 411.316406 335.390625 411.355469 334.980469 411.4375 334.574219 C 411.515625 334.167969 411.636719 333.773438 411.796875 333.390625 C 411.953125 333.007812 412.148438 332.644531 412.378906 332.296875 C 412.609375 331.953125 412.871094 331.636719 413.164062 331.339844 C 413.457031 331.046875 413.777344 330.785156 414.121094 330.554688 C 414.464844 330.324219 414.832031 330.132812 415.214844 329.972656 C 415.597656 329.8125 415.992188 329.695312 416.398438 329.613281 C 416.804688 329.53125 417.214844 329.492188 417.628906 329.492188 C 420.945312 329.574219 424.226562 329.949219 427.472656 330.621094 C 430.71875 331.289062 433.882812 332.242188 436.957031 333.480469 C 440.035156 334.714844 442.976562 336.214844 445.785156 337.976562 C 448.59375 339.742188 451.222656 341.738281 453.671875 343.972656 C 453.957031 344.269531 454.210938 344.585938 454.433594 344.933594 C 454.65625 345.277344 454.84375 345.636719 454.992188 346.019531 C 455.144531 346.398438 455.257812 346.792969 455.335938 347.195312 C 455.410156 347.597656 455.445312 348.003906 455.445312 348.414062 C 455.441406 348.824219 455.398438 349.230469 455.3125 349.632812 C 455.230469 350.035156 455.109375 350.425781 454.953125 350.800781 C 454.792969 351.179688 454.601562 351.539062 454.371094 351.878906 C 454.144531 352.21875 453.882812 352.535156 453.59375 352.824219 C 453.304688 353.117188 452.988281 353.375 452.648438 353.601562 C 452.308594 353.832031 451.949219 354.023438 451.570312 354.183594 C 451.191406 354.34375 450.800781 354.464844 450.402344 354.546875 C 450 354.628906 449.59375 354.671875 449.183594 354.675781 C 448.773438 354.679688 448.367188 354.640625 447.964844 354.566406 C 447.5625 354.492188 447.167969 354.378906 446.789062 354.226562 C 446.40625 354.074219 446.042969 353.886719 445.699219 353.664062 C 445.355469 353.441406 445.035156 353.1875 444.742188 352.902344 C 441.851562 350.226562 438.636719 348.03125 435.09375 346.316406 C 431.550781 344.601562 427.835938 343.441406 423.945312 342.835938 L 423.945312 373.699219 C 423.9375 377.210938 424.636719 380.582031 426.042969 383.800781 C 426.144531 384.042969 426.234375 384.285156 426.308594 384.535156 C 426.382812 384.785156 426.441406 385.039062 426.484375 385.296875 C 426.527344 385.554688 426.554688 385.8125 426.5625 386.074219 C 426.574219 386.335938 426.570312 386.597656 426.546875 386.855469 C 426.523438 387.117188 426.488281 387.375 426.433594 387.628906 C 426.378906 387.882812 426.3125 388.136719 426.226562 388.382812 C 426.140625 388.628906 426.042969 388.871094 425.925781 389.105469 C 425.8125 389.339844 425.683594 389.566406 425.539062 389.785156 C 425.398438 390 425.242188 390.210938 425.074219 390.410156 C 424.90625 390.609375 424.722656 390.796875 424.53125 390.972656 C 424.339844 391.148438 424.136719 391.3125 423.925781 391.464844 C 423.714844 391.617188 423.492188 391.757812 423.261719 391.878906 C 423.035156 392.003906 422.796875 392.113281 422.554688 392.210938 C 422.3125 392.304688 422.0625 392.382812 421.8125 392.449219 C 421.558594 392.511719 421.300781 392.5625 421.042969 392.59375 C 420.785156 392.625 420.523438 392.644531 420.261719 392.644531 Z M 420.261719 392.644531 " fill-opacity="1" fill-rule="nonzero"/><path fill="#cb6ce6" d="M 449.207031 411.589844 C 443.933594 411.601562 438.878906 410.546875 434.050781 408.429688 C 433.671875 408.265625 433.3125 408.0625 432.976562 407.824219 C 432.636719 407.585938 432.324219 407.316406 432.039062 407.019531 C 431.753906 406.71875 431.5 406.398438 431.277344 406.046875 C 431.058594 405.699219 430.871094 405.332031 430.722656 404.949219 C 430.570312 404.5625 430.460938 404.167969 430.386719 403.757812 C 430.316406 403.351562 430.285156 402.941406 430.292969 402.53125 C 430.300781 402.117188 430.347656 401.707031 430.4375 401.304688 C 430.527344 400.902344 430.652344 400.507812 430.816406 400.128906 C 430.984375 399.75 431.183594 399.394531 431.421875 399.054688 C 431.65625 398.714844 431.921875 398.402344 432.21875 398.113281 C 432.515625 397.828125 432.839844 397.570312 433.1875 397.347656 C 433.535156 397.125 433.898438 396.9375 434.285156 396.785156 C 434.667969 396.632812 435.0625 396.519531 435.46875 396.445312 C 435.878906 396.371094 436.285156 396.335938 436.699219 396.34375 C 437.113281 396.347656 437.523438 396.394531 437.925781 396.480469 C 438.332031 396.566406 438.722656 396.691406 439.101562 396.855469 C 441.484375 397.890625 443.972656 398.546875 446.558594 398.820312 C 449.144531 399.089844 451.710938 398.96875 454.257812 398.453125 C 454.664062 398.371094 455.074219 398.328125 455.488281 398.324219 C 455.90625 398.324219 456.316406 398.363281 456.722656 398.441406 C 457.128906 398.519531 457.523438 398.636719 457.910156 398.792969 C 458.292969 398.953125 458.65625 399.144531 459.003906 399.371094 C 459.351562 399.601562 459.671875 399.863281 459.964844 400.152344 C 460.261719 400.445312 460.523438 400.761719 460.753906 401.105469 C 460.988281 401.449219 461.183594 401.8125 461.34375 402.195312 C 461.503906 402.578125 461.625 402.972656 461.710938 403.378906 C 461.792969 403.785156 461.835938 404.195312 461.835938 404.609375 C 461.839844 405.027344 461.800781 405.4375 461.722656 405.84375 C 461.644531 406.25 461.523438 406.644531 461.367188 407.03125 C 461.210938 407.414062 461.019531 407.777344 460.789062 408.125 C 460.5625 408.472656 460.300781 408.792969 460.007812 409.085938 C 459.71875 409.382812 459.398438 409.644531 459.054688 409.875 C 458.710938 410.109375 458.347656 410.304688 457.96875 410.464844 C 457.585938 410.625 457.191406 410.75 456.785156 410.832031 C 454.28125 411.335938 451.757812 411.585938 449.207031 411.589844 Z M 449.207031 411.589844 " fill-opacity="1" fill-rule="nonzero"/><path fill="#cb6ce6" d="M 436.574219 380.011719 C 436.160156 380.011719 435.75 379.972656 435.34375 379.890625 C 434.9375 379.8125 434.542969 379.691406 434.160156 379.53125 C 433.777344 379.375 433.410156 379.179688 433.066406 378.949219 C 432.722656 378.71875 432.402344 378.457031 432.109375 378.164062 C 431.816406 377.871094 431.554688 377.550781 431.324219 377.207031 C 431.09375 376.863281 430.898438 376.496094 430.742188 376.113281 C 430.582031 375.730469 430.460938 375.335938 430.382812 374.929688 C 430.300781 374.523438 430.261719 374.113281 430.261719 373.699219 C 430.261719 344.015625 477.054688 330.300781 479.050781 329.738281 C 479.519531 329.605469 480 329.527344 480.488281 329.503906 C 480.976562 329.480469 481.460938 329.515625 481.9375 329.605469 C 482.417969 329.691406 482.882812 329.835938 483.328125 330.035156 C 483.777344 330.230469 484.195312 330.476562 484.585938 330.769531 C 484.972656 331.0625 485.324219 331.398438 485.636719 331.773438 C 485.949219 332.148438 486.214844 332.554688 486.433594 332.992188 C 486.652344 333.429688 486.816406 333.886719 486.929688 334.363281 C 487.039062 334.835938 487.097656 335.320312 487.097656 335.808594 L 487.097656 367.382812 C 487.097656 367.796875 487.054688 368.207031 486.976562 368.613281 C 486.894531 369.023438 486.773438 369.417969 486.617188 369.800781 C 486.457031 370.183594 486.261719 370.546875 486.03125 370.890625 C 485.800781 371.234375 485.539062 371.554688 485.246094 371.847656 C 484.953125 372.140625 484.636719 372.402344 484.289062 372.632812 C 483.945312 372.863281 483.582031 373.058594 483.199219 373.21875 C 482.816406 373.375 482.421875 373.496094 482.011719 373.578125 C 481.605469 373.65625 481.195312 373.699219 480.78125 373.699219 C 480.367188 373.699219 479.957031 373.65625 479.550781 373.578125 C 479.144531 373.496094 478.746094 373.375 478.363281 373.21875 C 477.980469 373.058594 477.617188 372.863281 477.273438 372.632812 C 476.929688 372.402344 476.609375 372.140625 476.316406 371.847656 C 476.023438 371.554688 475.761719 371.234375 475.53125 370.890625 C 475.300781 370.546875 475.105469 370.183594 474.945312 369.800781 C 474.789062 369.417969 474.667969 369.023438 474.585938 368.613281 C 474.507812 368.207031 474.464844 367.796875 474.464844 367.382812 L 474.464844 344.648438 C 461.484375 349.8125 442.890625 360.164062 442.890625 373.699219 C 442.890625 374.113281 442.851562 374.523438 442.769531 374.929688 C 442.6875 375.335938 442.570312 375.730469 442.410156 376.113281 C 442.25 376.496094 442.058594 376.863281 441.828125 377.207031 C 441.597656 377.550781 441.335938 377.871094 441.042969 378.164062 C 440.746094 378.457031 440.429688 378.71875 440.085938 378.949219 C 439.738281 379.179688 439.375 379.375 438.992188 379.53125 C 438.609375 379.691406 438.214844 379.8125 437.808594 379.890625 C 437.402344 379.972656 436.992188 380.011719 436.574219 380.011719 Z M 436.574219 380.011719 " fill-opacity="1" fill-rule="nonzero"/><path fill="#cb6ce6" d="M 474.464844 342.121094 C 474.050781 342.121094 473.640625 342.082031 473.234375 342 C 472.828125 341.921875 472.433594 341.800781 472.050781 341.640625 C 471.667969 341.484375 471.300781 341.289062 470.957031 341.058594 C 470.613281 340.828125 470.292969 340.566406 470 340.273438 C 469.707031 339.980469 469.445312 339.660156 469.214844 339.316406 C 468.984375 338.972656 468.789062 338.605469 468.632812 338.222656 C 468.472656 337.839844 468.355469 337.445312 468.273438 337.039062 C 468.191406 336.632812 468.152344 336.222656 468.152344 335.808594 C 468.152344 333.3125 459.601562 327.421875 449.207031 323.5625 C 438.8125 327.421875 430.261719 333.3125 430.261719 335.808594 C 430.261719 336.222656 430.21875 336.632812 430.140625 337.039062 C 430.058594 337.445312 429.9375 337.839844 429.78125 338.222656 C 429.621094 338.605469 429.425781 338.972656 429.195312 339.316406 C 428.964844 339.660156 428.703125 339.980469 428.410156 340.273438 C 428.117188 340.566406 427.796875 340.828125 427.453125 341.058594 C 427.109375 341.289062 426.746094 341.484375 426.363281 341.640625 C 425.980469 341.800781 425.585938 341.921875 425.175781 342 C 424.769531 342.082031 424.359375 342.121094 423.945312 342.121094 C 423.53125 342.121094 423.121094 342.082031 422.714844 342 C 422.308594 341.921875 421.910156 341.800781 421.527344 341.640625 C 421.144531 341.484375 420.78125 341.289062 420.4375 341.058594 C 420.09375 340.828125 419.773438 340.566406 419.480469 340.273438 C 419.1875 339.980469 418.925781 339.660156 418.695312 339.316406 C 418.464844 338.972656 418.269531 338.605469 418.109375 338.222656 C 417.953125 337.839844 417.832031 337.445312 417.75 337.039062 C 417.671875 336.632812 417.628906 336.222656 417.628906 335.808594 C 417.628906 321.914062 440.257812 313.207031 447.199219 310.875 C 448.535156 310.425781 449.875 310.425781 451.214844 310.875 C 458.15625 313.207031 480.78125 321.914062 480.78125 335.808594 C 480.78125 336.222656 480.742188 336.632812 480.660156 337.039062 C 480.578125 337.445312 480.460938 337.839844 480.300781 338.222656 C 480.140625 338.605469 479.949219 338.972656 479.71875 339.316406 C 479.488281 339.660156 479.226562 339.980469 478.933594 340.273438 C 478.640625 340.566406 478.320312 340.828125 477.976562 341.058594 C 477.628906 341.289062 477.265625 341.484375 476.882812 341.640625 C 476.5 341.800781 476.105469 341.921875 475.699219 342 C 475.292969 342.082031 474.882812 342.121094 474.464844 342.121094 Z M 474.464844 342.121094 " fill-opacity="1" fill-rule="nonzero"/><path fill="#cb6ce6" d="M 405 474.738281 C 403.757812 474.738281 402.523438 474.675781 401.289062 474.554688 C 400.050781 474.429688 398.828125 474.25 397.609375 474.007812 C 396.394531 473.761719 395.191406 473.460938 394.003906 473.101562 C 392.816406 472.738281 391.652344 472.320312 390.503906 471.847656 C 389.359375 471.371094 388.238281 470.839844 387.144531 470.253906 C 386.050781 469.667969 384.988281 469.03125 383.957031 468.34375 C 382.925781 467.652344 381.929688 466.914062 380.972656 466.128906 C 380.011719 465.339844 379.09375 464.507812 378.21875 463.632812 C 377.339844 462.753906 376.507812 461.835938 375.722656 460.875 C 374.933594 459.917969 374.195312 458.921875 373.507812 457.890625 C 372.816406 456.859375 372.179688 455.796875 371.59375 454.703125 C 371.007812 453.609375 370.480469 452.488281 370.003906 451.34375 C 369.527344 450.199219 369.109375 449.03125 368.75 447.84375 C 368.386719 446.65625 368.085938 445.457031 367.84375 444.238281 C 367.601562 443.023438 367.417969 441.796875 367.296875 440.5625 C 367.171875 439.328125 367.109375 438.089844 367.109375 436.847656 L 367.109375 398.957031 C 367.109375 398.46875 367.164062 397.988281 367.277344 397.511719 C 367.390625 397.039062 367.554688 396.582031 367.773438 396.144531 C 367.992188 395.707031 368.257812 395.300781 368.566406 394.925781 C 368.878906 394.550781 369.230469 394.214844 369.621094 393.921875 C 370.011719 393.628906 370.429688 393.382812 370.875 393.183594 C 371.324219 392.988281 371.785156 392.84375 372.265625 392.753906 C 372.746094 392.664062 373.230469 392.632812 373.71875 392.65625 C 374.207031 392.675781 374.683594 392.757812 375.15625 392.890625 C 384.8125 395.8125 393.921875 399.949219 402.472656 405.304688 C 404.871094 403.351562 407.414062 401.605469 410.097656 400.070312 C 412.785156 398.535156 415.578125 397.226562 418.476562 396.152344 C 421.375 395.074219 424.34375 394.242188 427.382812 393.652344 C 430.417969 393.0625 433.484375 392.726562 436.574219 392.644531 C 436.992188 392.644531 437.402344 392.683594 437.808594 392.765625 C 438.214844 392.84375 438.609375 392.964844 438.992188 393.125 C 439.375 393.28125 439.738281 393.476562 440.085938 393.707031 C 440.429688 393.9375 440.746094 394.199219 441.042969 394.492188 C 441.335938 394.785156 441.597656 395.105469 441.828125 395.449219 C 442.058594 395.792969 442.25 396.160156 442.410156 396.542969 C 442.570312 396.925781 442.6875 397.320312 442.769531 397.726562 C 442.851562 398.132812 442.890625 398.542969 442.890625 398.957031 L 442.890625 436.847656 C 442.890625 438.089844 442.828125 439.328125 442.703125 440.5625 C 442.582031 441.796875 442.398438 443.023438 442.15625 444.238281 C 441.914062 445.457031 441.613281 446.65625 441.25 447.84375 C 440.890625 449.03125 440.472656 450.199219 439.996094 451.34375 C 439.519531 452.488281 438.992188 453.609375 438.40625 454.703125 C 437.820312 455.796875 437.183594 456.859375 436.492188 457.890625 C 435.804688 458.921875 435.066406 459.917969 434.277344 460.875 C 433.492188 461.835938 432.660156 462.753906 431.78125 463.632812 C 430.90625 464.507812 429.988281 465.339844 429.027344 466.128906 C 428.070312 466.914062 427.074219 467.652344 426.042969 468.34375 C 425.011719 469.03125 423.949219 469.667969 422.855469 470.253906 C 421.761719 470.839844 420.640625 471.371094 419.496094 471.847656 C 418.347656 472.320312 417.183594 472.738281 415.996094 473.101562 C 414.808594 473.460938 413.605469 473.761719 412.390625 474.007812 C 411.171875 474.25 409.949219 474.429688 408.710938 474.554688 C 407.476562 474.675781 406.242188 474.738281 405 474.738281 Z M 379.738281 407.800781 L 379.738281 436.847656 C 379.738281 437.675781 379.78125 438.503906 379.859375 439.324219 C 379.941406 440.148438 380.0625 440.964844 380.226562 441.777344 C 380.386719 442.589844 380.585938 443.390625 380.828125 444.183594 C 381.066406 444.972656 381.34375 445.75 381.664062 446.515625 C 381.980469 447.28125 382.332031 448.027344 382.722656 448.757812 C 383.113281 449.488281 383.535156 450.195312 383.996094 450.882812 C 384.457031 451.570312 384.949219 452.234375 385.472656 452.875 C 386 453.515625 386.554688 454.125 387.136719 454.710938 C 387.722656 455.296875 388.335938 455.851562 388.976562 456.375 C 389.613281 456.902344 390.277344 457.394531 390.964844 457.851562 C 391.652344 458.3125 392.363281 458.738281 393.09375 459.128906 C 393.820312 459.515625 394.570312 459.871094 395.332031 460.1875 C 396.097656 460.503906 396.875 460.78125 397.667969 461.023438 C 398.457031 461.261719 399.261719 461.464844 400.070312 461.625 C 400.882812 461.785156 401.699219 461.90625 402.523438 461.988281 C 403.347656 462.070312 404.171875 462.109375 405 462.109375 C 405.828125 462.109375 406.652344 462.070312 407.476562 461.988281 C 408.300781 461.90625 409.117188 461.785156 409.929688 461.625 C 410.738281 461.464844 411.542969 461.261719 412.332031 461.023438 C 413.125 460.78125 413.902344 460.503906 414.667969 460.1875 C 415.429688 459.871094 416.179688 459.515625 416.90625 459.128906 C 417.636719 458.738281 418.347656 458.3125 419.035156 457.851562 C 419.722656 457.394531 420.386719 456.902344 421.023438 456.375 C 421.664062 455.851562 422.277344 455.296875 422.863281 454.710938 C 423.445312 454.125 424 453.515625 424.527344 452.875 C 425.050781 452.234375 425.542969 451.570312 426.003906 450.882812 C 426.464844 450.195312 426.886719 449.488281 427.277344 448.757812 C 427.667969 448.027344 428.019531 447.28125 428.335938 446.515625 C 428.652344 445.75 428.933594 444.972656 429.171875 444.183594 C 429.414062 443.390625 429.613281 442.589844 429.773438 441.777344 C 429.9375 440.964844 430.058594 440.148438 430.140625 439.324219 C 430.21875 438.503906 430.261719 437.675781 430.261719 436.847656 L 430.261719 405.980469 C 423.835938 407.050781 417.976562 409.480469 412.679688 413.269531 C 414.375 414.742188 415.90625 416.375 417.265625 418.164062 C 418.628906 419.953125 419.792969 421.859375 420.761719 423.886719 C 421.730469 425.917969 422.484375 428.023438 423.019531 430.207031 C 423.554688 432.386719 423.863281 434.601562 423.945312 436.847656 C 423.945312 437.265625 423.90625 437.675781 423.824219 438.082031 C 423.742188 438.488281 423.625 438.882812 423.464844 439.265625 C 423.304688 439.648438 423.113281 440.011719 422.882812 440.359375 C 422.652344 440.703125 422.390625 441.023438 422.097656 441.316406 C 421.800781 441.609375 421.484375 441.871094 421.140625 442.101562 C 420.792969 442.332031 420.429688 442.523438 420.046875 442.683594 C 419.664062 442.84375 419.269531 442.960938 418.863281 443.042969 C 418.457031 443.125 418.042969 443.164062 417.628906 443.164062 C 417.214844 443.164062 416.804688 443.125 416.398438 443.042969 C 415.992188 442.960938 415.597656 442.84375 415.214844 442.683594 C 414.832031 442.523438 414.464844 442.332031 414.121094 442.101562 C 413.777344 441.871094 413.457031 441.609375 413.164062 441.316406 C 412.871094 441.023438 412.609375 440.703125 412.378906 440.359375 C 412.148438 440.011719 411.953125 439.648438 411.796875 439.265625 C 411.636719 438.882812 411.515625 438.488281 411.4375 438.082031 C 411.355469 437.675781 411.316406 437.265625 411.316406 436.847656 C 411.316406 423.339844 392.722656 412.992188 379.738281 407.800781 Z M 379.738281 407.800781 " fill-opacity="1" fill-rule="nonzero"/><path fill="#cb6ce6" d="M 430.261719 405.273438 C 429.847656 405.273438 429.433594 405.234375 429.027344 405.152344 C 428.621094 405.070312 428.226562 404.953125 427.84375 404.792969 C 427.460938 404.632812 427.097656 404.441406 426.753906 404.210938 C 426.40625 403.980469 426.089844 403.71875 425.796875 403.425781 C 425.5 403.128906 425.238281 402.8125 425.007812 402.46875 C 424.777344 402.121094 424.585938 401.757812 424.425781 401.375 C 424.265625 400.992188 424.148438 400.597656 424.066406 400.191406 C 423.984375 399.785156 423.945312 399.375 423.945312 398.957031 C 423.945312 396.464844 415.394531 390.570312 405 386.714844 C 394.605469 390.570312 386.054688 396.464844 386.054688 398.957031 C 386.054688 399.375 386.015625 399.785156 385.933594 400.191406 C 385.851562 400.597656 385.734375 400.992188 385.574219 401.375 C 385.414062 401.757812 385.21875 402.121094 384.992188 402.46875 C 384.761719 402.8125 384.5 403.128906 384.203125 403.425781 C 383.910156 403.71875 383.59375 403.980469 383.246094 404.210938 C 382.902344 404.441406 382.539062 404.632812 382.15625 404.792969 C 381.773438 404.953125 381.378906 405.070312 380.972656 405.152344 C 380.566406 405.234375 380.152344 405.273438 379.738281 405.273438 C 379.324219 405.273438 378.914062 405.234375 378.507812 405.152344 C 378.101562 405.070312 377.707031 404.953125 377.324219 404.792969 C 376.941406 404.632812 376.574219 404.441406 376.230469 404.210938 C 375.886719 403.980469 375.566406 403.71875 375.273438 403.425781 C 374.980469 403.128906 374.71875 402.8125 374.488281 402.46875 C 374.257812 402.121094 374.0625 401.757812 373.90625 401.375 C 373.746094 400.992188 373.625 400.597656 373.546875 400.191406 C 373.464844 399.785156 373.425781 399.375 373.425781 398.957031 C 373.425781 385.066406 396.050781 376.355469 402.992188 374.027344 C 404.332031 373.578125 405.667969 373.578125 407.007812 374.027344 C 413.949219 376.355469 436.574219 385.066406 436.574219 398.957031 C 436.574219 399.375 436.535156 399.785156 436.453125 400.191406 C 436.375 400.597656 436.253906 400.992188 436.09375 401.375 C 435.9375 401.757812 435.742188 402.121094 435.511719 402.46875 C 435.28125 402.8125 435.019531 403.128906 434.726562 403.425781 C 434.433594 403.71875 434.113281 403.980469 433.769531 404.210938 C 433.425781 404.441406 433.058594 404.632812 432.675781 404.792969 C 432.292969 404.953125 431.898438 405.070312 431.492188 405.152344 C 431.085938 405.234375 430.675781 405.273438 430.261719 405.273438 Z M 430.261719 405.273438 " fill-opacity="1" fill-rule="nonzero"/><path fill="#cb6ce6" d="M 322.902344 462.109375 C 321.664062 462.109375 320.425781 462.046875 319.191406 461.925781 C 317.957031 461.800781 316.730469 461.617188 315.515625 461.375 C 314.296875 461.132812 313.09375 460.832031 311.910156 460.46875 C 310.722656 460.109375 309.554688 459.691406 308.410156 459.214844 C 307.261719 458.738281 306.144531 458.210938 305.050781 457.625 C 303.957031 457.039062 302.890625 456.402344 301.859375 455.710938 C 300.828125 455.023438 299.835938 454.285156 298.875 453.496094 C 297.917969 452.710938 297 451.878906 296.121094 451 C 295.246094 450.125 294.410156 449.207031 293.625 448.246094 C 292.835938 447.289062 292.097656 446.292969 291.410156 445.261719 C 290.71875 444.230469 290.082031 443.167969 289.496094 442.074219 C 288.914062 440.980469 288.382812 439.859375 287.90625 438.714844 C 287.429688 437.566406 287.011719 436.402344 286.652344 435.214844 C 286.292969 434.027344 285.988281 432.824219 285.746094 431.609375 C 285.503906 430.390625 285.320312 429.167969 285.199219 427.933594 C 285.074219 426.699219 285.015625 425.460938 285.011719 424.21875 L 285.011719 386.328125 C 285.011719 385.914062 285.054688 385.503906 285.132812 385.097656 C 285.214844 384.691406 285.335938 384.292969 285.492188 383.910156 C 285.652344 383.527344 285.847656 383.164062 286.078125 382.820312 C 286.308594 382.476562 286.570312 382.15625 286.863281 381.863281 C 287.15625 381.570312 287.472656 381.308594 287.820312 381.078125 C 288.164062 380.847656 288.527344 380.652344 288.910156 380.492188 C 289.292969 380.335938 289.6875 380.214844 290.09375 380.132812 C 290.503906 380.054688 290.914062 380.011719 291.328125 380.011719 C 294.417969 380.097656 297.484375 380.433594 300.519531 381.023438 C 303.558594 381.609375 306.527344 382.445312 309.425781 383.519531 C 312.328125 384.597656 315.121094 385.902344 317.804688 387.441406 C 320.488281 388.976562 323.03125 390.722656 325.429688 392.675781 C 333.984375 387.320312 343.089844 383.183594 352.75 380.257812 C 353.21875 380.125 353.695312 380.046875 354.183594 380.023438 C 354.671875 380 355.15625 380.035156 355.636719 380.125 C 356.117188 380.214844 356.578125 380.359375 357.027344 380.554688 C 357.472656 380.75 357.890625 380.996094 358.28125 381.292969 C 358.671875 381.585938 359.023438 381.921875 359.335938 382.296875 C 359.648438 382.671875 359.914062 383.078125 360.128906 383.515625 C 360.347656 383.953125 360.511719 384.40625 360.625 384.882812 C 360.738281 385.359375 360.792969 385.839844 360.792969 386.328125 L 360.792969 424.21875 C 360.792969 425.460938 360.730469 426.699219 360.609375 427.933594 C 360.484375 429.167969 360.300781 430.390625 360.058594 431.609375 C 359.816406 432.824219 359.515625 434.027344 359.152344 435.214844 C 358.792969 436.402344 358.375 437.566406 357.898438 438.714844 C 357.425781 439.859375 356.894531 440.980469 356.308594 442.074219 C 355.722656 443.167969 355.085938 444.230469 354.398438 445.261719 C 353.707031 446.292969 352.96875 447.289062 352.179688 448.246094 C 351.394531 449.207031 350.5625 450.125 349.683594 451 C 348.808594 451.878906 347.890625 452.710938 346.929688 453.496094 C 345.972656 454.285156 344.976562 455.023438 343.945312 455.710938 C 342.914062 456.402344 341.851562 457.039062 340.757812 457.625 C 339.664062 458.210938 338.542969 458.738281 337.398438 459.214844 C 336.25 459.691406 335.085938 460.109375 333.898438 460.46875 C 332.710938 460.832031 331.507812 461.132812 330.292969 461.375 C 329.074219 461.617188 327.851562 461.800781 326.617188 461.925781 C 325.382812 462.046875 324.144531 462.109375 322.902344 462.109375 Z M 297.644531 393.355469 L 297.644531 424.21875 C 297.644531 425.046875 297.683594 425.871094 297.765625 426.695312 C 297.84375 427.519531 297.964844 428.335938 298.128906 429.148438 C 298.289062 429.957031 298.492188 430.761719 298.730469 431.550781 C 298.96875 432.34375 299.25 433.121094 299.566406 433.886719 C 299.882812 434.648438 300.234375 435.398438 300.625 436.125 C 301.015625 436.855469 301.441406 437.566406 301.898438 438.253906 C 302.359375 438.941406 302.851562 439.605469 303.375 440.246094 C 303.902344 440.882812 304.457031 441.496094 305.042969 442.082031 C 305.625 442.664062 306.238281 443.222656 306.878906 443.746094 C 307.519531 444.269531 308.179688 444.761719 308.871094 445.222656 C 309.558594 445.683594 310.265625 446.105469 310.996094 446.496094 C 311.726562 446.886719 312.472656 447.238281 313.238281 447.558594 C 314 447.875 314.777344 448.152344 315.570312 448.390625 C 316.363281 448.632812 317.164062 448.832031 317.976562 448.996094 C 318.785156 449.15625 319.605469 449.277344 320.425781 449.359375 C 321.25 449.4375 322.074219 449.480469 322.902344 449.480469 C 323.730469 449.480469 324.554688 449.4375 325.378906 449.359375 C 326.203125 449.277344 327.019531 449.15625 327.832031 448.996094 C 328.644531 448.832031 329.445312 448.632812 330.234375 448.390625 C 331.027344 448.152344 331.804688 447.875 332.570312 447.558594 C 333.335938 447.238281 334.082031 446.886719 334.8125 446.496094 C 335.539062 446.105469 336.25 445.683594 336.9375 445.222656 C 337.625 444.761719 338.289062 444.269531 338.929688 443.746094 C 339.566406 443.222656 340.179688 442.664062 340.765625 442.082031 C 341.351562 441.496094 341.90625 440.882812 342.429688 440.246094 C 342.953125 439.605469 343.445312 438.941406 343.90625 438.253906 C 344.367188 437.566406 344.792969 436.855469 345.179688 436.125 C 345.570312 435.398438 345.925781 434.648438 346.242188 433.886719 C 346.558594 433.121094 346.835938 432.34375 347.074219 431.550781 C 347.316406 430.761719 347.515625 429.957031 347.679688 429.148438 C 347.839844 428.335938 347.960938 427.519531 348.042969 426.695312 C 348.125 425.871094 348.164062 425.046875 348.164062 424.21875 L 348.164062 395.167969 C 335.179688 400.335938 316.589844 410.6875 316.589844 424.21875 C 316.589844 424.632812 316.546875 425.042969 316.464844 425.449219 C 316.386719 425.859375 316.265625 426.253906 316.105469 426.636719 C 315.949219 427.019531 315.753906 427.382812 315.523438 427.726562 C 315.292969 428.074219 315.03125 428.390625 314.738281 428.683594 C 314.445312 428.976562 314.125 429.238281 313.78125 429.46875 C 313.4375 429.699219 313.074219 429.894531 312.691406 430.054688 C 312.304688 430.210938 311.910156 430.332031 311.503906 430.414062 C 311.097656 430.492188 310.6875 430.535156 310.273438 430.535156 C 309.859375 430.535156 309.449219 430.492188 309.039062 430.414062 C 308.632812 430.332031 308.238281 430.210938 307.855469 430.054688 C 307.472656 429.894531 307.109375 429.699219 306.765625 429.46875 C 306.417969 429.238281 306.101562 428.976562 305.808594 428.683594 C 305.515625 428.390625 305.253906 428.074219 305.023438 427.726562 C 304.792969 427.382812 304.597656 427.019531 304.4375 426.636719 C 304.28125 426.253906 304.160156 425.859375 304.078125 425.449219 C 304 425.042969 303.957031 424.632812 303.957031 424.21875 C 304.039062 421.972656 304.347656 419.757812 304.882812 417.574219 C 305.417969 415.390625 306.171875 413.285156 307.140625 411.257812 C 308.109375 409.230469 309.273438 407.320312 310.636719 405.53125 C 311.996094 403.742188 313.527344 402.113281 315.222656 400.636719 C 309.929688 396.847656 304.070312 394.417969 297.644531 393.355469 Z M 297.644531 393.355469 " fill-opacity="1" fill-rule="nonzero"/><path fill="#cb6ce6" d="M 348.164062 392.644531 C 347.75 392.644531 347.339844 392.601562 346.933594 392.523438 C 346.523438 392.441406 346.128906 392.320312 345.746094 392.164062 C 345.363281 392.003906 345 391.808594 344.65625 391.578125 C 344.308594 391.347656 343.992188 391.085938 343.699219 390.792969 C 343.40625 390.5 343.144531 390.179688 342.914062 389.835938 C 342.683594 389.492188 342.488281 389.128906 342.328125 388.746094 C 342.171875 388.363281 342.050781 387.96875 341.96875 387.558594 C 341.890625 387.152344 341.847656 386.742188 341.847656 386.328125 C 341.847656 383.832031 333.296875 377.941406 322.902344 374.082031 C 312.507812 377.941406 303.957031 383.832031 303.957031 386.328125 C 303.957031 386.742188 303.917969 387.152344 303.835938 387.558594 C 303.753906 387.96875 303.636719 388.363281 303.476562 388.746094 C 303.320312 389.128906 303.125 389.492188 302.894531 389.835938 C 302.664062 390.179688 302.402344 390.5 302.109375 390.792969 C 301.816406 391.085938 301.496094 391.347656 301.152344 391.578125 C 300.804688 391.808594 300.441406 392.003906 300.058594 392.164062 C 299.675781 392.320312 299.28125 392.441406 298.875 392.523438 C 298.46875 392.601562 298.058594 392.644531 297.644531 392.644531 C 297.226562 392.644531 296.816406 392.601562 296.410156 392.523438 C 296.003906 392.441406 295.609375 392.320312 295.226562 392.164062 C 294.84375 392.003906 294.480469 391.808594 294.132812 391.578125 C 293.789062 391.347656 293.46875 391.085938 293.175781 390.792969 C 292.882812 390.5 292.621094 390.179688 292.390625 389.835938 C 292.160156 389.492188 291.96875 389.128906 291.808594 388.746094 C 291.648438 388.363281 291.53125 387.96875 291.449219 387.558594 C 291.367188 387.152344 291.328125 386.742188 291.328125 386.328125 C 291.328125 372.433594 313.953125 363.726562 320.894531 361.394531 C 322.234375 360.945312 323.574219 360.945312 324.910156 361.394531 C 331.851562 363.726562 354.480469 372.433594 354.480469 386.328125 C 354.480469 386.742188 354.4375 387.152344 354.359375 387.558594 C 354.277344 387.96875 354.15625 388.363281 354 388.746094 C 353.839844 389.128906 353.644531 389.492188 353.414062 389.835938 C 353.183594 390.179688 352.921875 390.5 352.628906 390.792969 C 352.335938 391.085938 352.015625 391.347656 351.671875 391.578125 C 351.328125 391.808594 350.964844 392.003906 350.582031 392.164062 C 350.199219 392.320312 349.800781 392.441406 349.394531 392.523438 C 348.988281 392.601562 348.578125 392.644531 348.164062 392.644531 Z M 348.164062 392.644531 " fill-opacity="1" fill-rule="nonzero"/><path fill="#cb6ce6" d="M 487.097656 462.109375 C 485.855469 462.109375 484.617188 462.046875 483.382812 461.925781 C 482.148438 461.800781 480.921875 461.617188 479.707031 461.375 C 478.492188 461.132812 477.289062 460.832031 476.101562 460.46875 C 474.914062 460.109375 473.75 459.691406 472.601562 459.214844 C 471.457031 458.738281 470.335938 458.210938 469.242188 457.625 C 468.148438 457.039062 467.085938 456.402344 466.054688 455.710938 C 465.023438 455.023438 464.027344 454.285156 463.070312 453.496094 C 462.109375 452.710938 461.191406 451.878906 460.316406 451 C 459.4375 450.125 458.605469 449.207031 457.816406 448.246094 C 457.03125 447.289062 456.292969 446.292969 455.601562 445.261719 C 454.914062 444.230469 454.277344 443.167969 453.691406 442.074219 C 453.105469 440.980469 452.574219 439.859375 452.101562 438.714844 C 451.625 437.566406 451.207031 436.402344 450.847656 435.214844 C 450.484375 434.027344 450.183594 432.824219 449.941406 431.609375 C 449.699219 430.390625 449.515625 429.167969 449.390625 427.933594 C 449.269531 426.699219 449.207031 425.460938 449.207031 424.21875 L 449.207031 386.328125 C 449.207031 385.914062 449.246094 385.503906 449.328125 385.097656 C 449.40625 384.691406 449.527344 384.292969 449.6875 383.910156 C 449.84375 383.527344 450.039062 383.164062 450.269531 382.820312 C 450.5 382.476562 450.761719 382.15625 451.054688 381.863281 C 451.347656 381.570312 451.667969 381.308594 452.011719 381.078125 C 452.355469 380.847656 452.722656 380.652344 453.105469 380.492188 C 453.488281 380.335938 453.882812 380.214844 454.289062 380.132812 C 454.695312 380.054688 455.105469 380.011719 455.519531 380.011719 C 458.613281 380.097656 461.679688 380.433594 464.714844 381.023438 C 467.75 381.609375 470.71875 382.445312 473.621094 383.519531 C 476.519531 384.597656 479.3125 385.902344 481.996094 387.441406 C 484.683594 388.976562 487.226562 390.722656 489.621094 392.675781 C 498.175781 387.320312 507.28125 383.183594 516.941406 380.257812 C 517.410156 380.125 517.890625 380.046875 518.378906 380.023438 C 518.867188 380 519.351562 380.035156 519.828125 380.125 C 520.308594 380.214844 520.773438 380.359375 521.21875 380.554688 C 521.667969 380.75 522.085938 380.996094 522.476562 381.292969 C 522.867188 381.585938 523.214844 381.921875 523.527344 382.296875 C 523.839844 382.671875 524.105469 383.078125 524.324219 383.515625 C 524.542969 383.953125 524.707031 384.40625 524.820312 384.882812 C 524.929688 385.359375 524.988281 385.839844 524.988281 386.328125 L 524.988281 424.21875 C 524.984375 425.460938 524.925781 426.699219 524.800781 427.933594 C 524.679688 429.167969 524.496094 430.390625 524.253906 431.609375 C 524.011719 432.824219 523.707031 434.027344 523.347656 435.214844 C 522.988281 436.402344 522.570312 437.566406 522.09375 438.714844 C 521.617188 439.859375 521.085938 440.980469 520.503906 442.074219 C 519.917969 443.167969 519.28125 444.230469 518.589844 445.261719 C 517.902344 446.292969 517.164062 447.289062 516.375 448.246094 C 515.589844 449.207031 514.753906 450.125 513.878906 451 C 513 451.878906 512.082031 452.710938 511.125 453.496094 C 510.164062 454.285156 509.171875 455.023438 508.140625 455.710938 C 507.109375 456.402344 506.042969 457.039062 504.949219 457.625 C 503.855469 458.210938 502.738281 458.738281 501.589844 459.214844 C 500.445312 459.691406 499.277344 460.109375 498.089844 460.46875 C 496.90625 460.832031 495.703125 461.132812 494.484375 461.375 C 493.269531 461.617188 492.042969 461.800781 490.808594 461.925781 C 489.574219 462.046875 488.335938 462.109375 487.097656 462.109375 Z M 461.835938 393.355469 L 461.835938 424.21875 C 461.835938 425.046875 461.875 425.871094 461.957031 426.695312 C 462.039062 427.519531 462.160156 428.335938 462.320312 429.148438 C 462.484375 429.957031 462.683594 430.761719 462.925781 431.550781 C 463.164062 432.34375 463.441406 433.121094 463.757812 433.886719 C 464.074219 434.648438 464.429688 435.398438 464.820312 436.125 C 465.207031 436.855469 465.632812 437.566406 466.09375 438.253906 C 466.554688 438.941406 467.046875 439.605469 467.570312 440.246094 C 468.09375 440.882812 468.648438 441.496094 469.234375 442.082031 C 469.820312 442.664062 470.433594 443.222656 471.070312 443.746094 C 471.710938 444.269531 472.375 444.761719 473.0625 445.222656 C 473.75 445.683594 474.460938 446.105469 475.1875 446.496094 C 475.917969 446.886719 476.664062 447.238281 477.429688 447.558594 C 478.195312 447.875 478.972656 448.152344 479.765625 448.390625 C 480.554688 448.632812 481.355469 448.832031 482.167969 448.996094 C 482.980469 449.15625 483.796875 449.277344 484.621094 449.359375 C 485.445312 449.4375 486.269531 449.480469 487.097656 449.480469 C 487.925781 449.480469 488.75 449.4375 489.574219 449.359375 C 490.394531 449.277344 491.214844 449.15625 492.023438 448.996094 C 492.835938 448.832031 493.636719 448.632812 494.429688 448.390625 C 495.222656 448.152344 496 447.875 496.761719 447.558594 C 497.527344 447.238281 498.273438 446.886719 499.003906 446.496094 C 499.734375 446.105469 500.441406 445.683594 501.128906 445.222656 C 501.820312 444.761719 502.480469 444.269531 503.121094 443.746094 C 503.761719 443.222656 504.375 442.664062 504.957031 442.082031 C 505.542969 441.496094 506.097656 440.882812 506.625 440.246094 C 507.148438 439.605469 507.640625 438.941406 508.101562 438.253906 C 508.558594 437.566406 508.984375 436.855469 509.375 436.125 C 509.765625 435.398438 510.117188 434.648438 510.433594 433.886719 C 510.75 433.121094 511.03125 432.34375 511.269531 431.550781 C 511.507812 430.761719 511.710938 429.957031 511.871094 429.148438 C 512.035156 428.335938 512.15625 427.519531 512.234375 426.695312 C 512.316406 425.871094 512.355469 425.046875 512.355469 424.21875 L 512.355469 395.167969 C 499.375 400.335938 480.78125 410.6875 480.78125 424.21875 C 480.78125 424.632812 480.742188 425.042969 480.660156 425.449219 C 480.578125 425.859375 480.460938 426.253906 480.300781 426.636719 C 480.140625 427.019531 479.949219 427.382812 479.71875 427.726562 C 479.488281 428.074219 479.226562 428.390625 478.933594 428.683594 C 478.640625 428.976562 478.320312 429.238281 477.976562 429.46875 C 477.628906 429.699219 477.265625 429.894531 476.882812 430.054688 C 476.5 430.210938 476.105469 430.332031 475.699219 430.414062 C 475.292969 430.492188 474.882812 430.535156 474.464844 430.535156 C 474.050781 430.535156 473.640625 430.492188 473.234375 430.414062 C 472.828125 430.332031 472.433594 430.210938 472.050781 430.054688 C 471.667969 429.894531 471.300781 429.699219 470.957031 429.46875 C 470.613281 429.238281 470.292969 428.976562 470 428.683594 C 469.707031 428.390625 469.445312 428.074219 469.214844 427.726562 C 468.984375 427.382812 468.789062 427.019531 468.632812 426.636719 C 468.472656 426.253906 468.355469 425.859375 468.273438 425.449219 C 468.191406 425.042969 468.152344 424.632812 468.152344 424.21875 C 468.230469 421.972656 468.539062 419.757812 469.078125 417.574219 C 469.613281 415.390625 470.363281 413.285156 471.335938 411.257812 C 472.304688 409.230469 473.46875 407.320312 474.828125 405.53125 C 476.191406 403.742188 477.71875 402.113281 479.417969 400.636719 C 474.121094 396.847656 468.261719 394.417969 461.835938 393.355469 Z M 461.835938 393.355469 " fill-opacity="1" fill-rule="nonzero"/><path fill="#cb6ce6" d="M 512.355469 392.644531 C 511.941406 392.644531 511.53125 392.601562 511.125 392.523438 C 510.71875 392.441406 510.324219 392.320312 509.941406 392.164062 C 509.558594 392.003906 509.195312 391.808594 508.847656 391.578125 C 508.503906 391.347656 508.183594 391.085938 507.890625 390.792969 C 507.597656 390.5 507.335938 390.179688 507.105469 389.835938 C 506.875 389.492188 506.679688 389.128906 506.523438 388.746094 C 506.363281 388.363281 506.246094 387.96875 506.164062 387.558594 C 506.082031 387.152344 506.042969 386.742188 506.042969 386.328125 C 506.042969 383.832031 497.492188 377.941406 487.097656 374.082031 C 476.703125 377.941406 468.152344 383.832031 468.152344 386.328125 C 468.152344 386.742188 468.109375 387.152344 468.03125 387.558594 C 467.949219 387.96875 467.828125 388.363281 467.671875 388.746094 C 467.511719 389.128906 467.316406 389.492188 467.085938 389.835938 C 466.855469 390.179688 466.59375 390.5 466.300781 390.792969 C 466.007812 391.085938 465.6875 391.347656 465.34375 391.578125 C 465 391.808594 464.636719 392.003906 464.253906 392.164062 C 463.871094 392.320312 463.476562 392.441406 463.066406 392.523438 C 462.660156 392.601562 462.25 392.644531 461.835938 392.644531 C 461.421875 392.644531 461.011719 392.601562 460.605469 392.523438 C 460.199219 392.441406 459.800781 392.320312 459.417969 392.164062 C 459.035156 392.003906 458.671875 391.808594 458.328125 391.578125 C 457.984375 391.347656 457.664062 391.085938 457.371094 390.792969 C 457.078125 390.5 456.816406 390.179688 456.585938 389.835938 C 456.355469 389.492188 456.160156 389.128906 456 388.746094 C 455.84375 388.363281 455.722656 387.96875 455.640625 387.558594 C 455.5625 387.152344 455.519531 386.742188 455.519531 386.328125 C 455.519531 372.433594 478.148438 363.726562 485.089844 361.394531 C 486.425781 360.945312 487.765625 360.945312 489.105469 361.394531 C 496.046875 363.726562 518.671875 372.433594 518.671875 386.328125 C 518.671875 386.742188 518.632812 387.152344 518.550781 387.558594 C 518.46875 387.96875 518.351562 388.363281 518.191406 388.746094 C 518.03125 389.128906 517.839844 389.492188 517.609375 389.835938 C 517.378906 390.179688 517.117188 390.5 516.824219 390.792969 C 516.53125 391.085938 516.210938 391.347656 515.867188 391.578125 C 515.519531 391.808594 515.15625 392.003906 514.773438 392.164062 C 514.390625 392.320312 513.996094 392.441406 513.589844 392.523438 C 513.183594 392.601562 512.773438 392.644531 512.355469 392.644531 Z M 512.355469 392.644531 " fill-opacity="1" fill-rule="nonzero"/><path fill="#cb6ce6" d="M 322.902344 487.371094 C 322.488281 487.371094 322.078125 487.328125 321.671875 487.25 C 321.265625 487.167969 320.871094 487.046875 320.488281 486.890625 C 320.101562 486.730469 319.738281 486.535156 319.394531 486.304688 C 319.050781 486.074219 318.730469 485.8125 318.4375 485.519531 C 318.144531 485.226562 317.882812 484.910156 317.652344 484.5625 C 317.421875 484.21875 317.226562 483.855469 317.070312 483.472656 C 316.910156 483.089844 316.789062 482.695312 316.710938 482.289062 C 316.628906 481.878906 316.589844 481.46875 316.589844 481.054688 L 316.589844 455.792969 C 316.589844 455.378906 316.628906 454.96875 316.710938 454.5625 C 316.789062 454.15625 316.910156 453.761719 317.070312 453.378906 C 317.226562 452.996094 317.421875 452.632812 317.652344 452.285156 C 317.882812 451.941406 318.144531 451.621094 318.4375 451.328125 C 318.730469 451.035156 319.050781 450.773438 319.394531 450.542969 C 319.738281 450.3125 320.101562 450.117188 320.488281 449.960938 C 320.871094 449.800781 321.265625 449.683594 321.671875 449.601562 C 322.078125 449.519531 322.488281 449.480469 322.902344 449.480469 C 323.316406 449.480469 323.730469 449.519531 324.136719 449.601562 C 324.542969 449.683594 324.9375 449.800781 325.320312 449.960938 C 325.703125 450.117188 326.066406 450.3125 326.410156 450.542969 C 326.757812 450.773438 327.074219 451.035156 327.367188 451.328125 C 327.660156 451.621094 327.921875 451.941406 328.152344 452.285156 C 328.382812 452.632812 328.578125 452.996094 328.738281 453.378906 C 328.894531 453.761719 329.015625 454.15625 329.097656 454.5625 C 329.179688 454.96875 329.21875 455.378906 329.21875 455.792969 L 329.21875 481.054688 C 329.21875 481.46875 329.179688 481.878906 329.097656 482.289062 C 329.015625 482.695312 328.894531 483.089844 328.738281 483.472656 C 328.578125 483.855469 328.382812 484.21875 328.152344 484.5625 C 327.921875 484.910156 327.660156 485.226562 327.367188 485.519531 C 327.074219 485.8125 326.757812 486.074219 326.410156 486.304688 C 326.066406 486.535156 325.703125 486.730469 325.320312 486.890625 C 324.9375 487.046875 324.542969 487.167969 324.136719 487.25 C 323.730469 487.328125 323.316406 487.371094 322.902344 487.371094 Z M 322.902344 487.371094 " fill-opacity="1" fill-rule="nonzero"/><path fill="#cb6ce6" d="M 405 506.316406 C 404.585938 506.316406 404.175781 506.273438 403.769531 506.195312 C 403.359375 506.113281 402.964844 505.992188 402.582031 505.835938 C 402.199219 505.675781 401.835938 505.480469 401.492188 505.25 C 401.148438 505.019531 400.828125 504.757812 400.535156 504.464844 C 400.242188 504.171875 399.980469 503.855469 399.75 503.507812 C 399.519531 503.164062 399.324219 502.800781 399.164062 502.417969 C 399.007812 502.035156 398.886719 501.640625 398.804688 501.234375 C 398.726562 500.824219 398.683594 500.414062 398.683594 500 L 398.683594 468.425781 C 398.683594 468.011719 398.726562 467.601562 398.804688 467.191406 C 398.886719 466.785156 399.007812 466.390625 399.164062 466.007812 C 399.324219 465.625 399.519531 465.261719 399.75 464.917969 C 399.980469 464.570312 400.242188 464.253906 400.535156 463.960938 C 400.828125 463.667969 401.148438 463.40625 401.492188 463.175781 C 401.835938 462.945312 402.199219 462.75 402.582031 462.589844 C 402.964844 462.433594 403.359375 462.3125 403.769531 462.230469 C 404.175781 462.148438 404.585938 462.109375 405 462.109375 C 405.414062 462.109375 405.824219 462.148438 406.230469 462.230469 C 406.640625 462.3125 407.035156 462.433594 407.417969 462.589844 C 407.800781 462.75 408.164062 462.945312 408.507812 463.175781 C 408.851562 463.40625 409.171875 463.667969 409.464844 463.960938 C 409.757812 464.253906 410.019531 464.570312 410.25 464.917969 C 410.480469 465.261719 410.675781 465.625 410.835938 466.007812 C 410.992188 466.390625 411.113281 466.785156 411.195312 467.191406 C 411.273438 467.601562 411.316406 468.011719 411.316406 468.425781 L 411.316406 500 C 411.316406 500.414062 411.273438 500.824219 411.195312 501.234375 C 411.113281 501.640625 410.992188 502.035156 410.835938 502.417969 C 410.675781 502.800781 410.480469 503.164062 410.25 503.507812 C 410.019531 503.855469 409.757812 504.171875 409.464844 504.464844 C 409.171875 504.757812 408.851562 505.019531 408.507812 505.25 C 408.164062 505.480469 407.800781 505.675781 407.417969 505.835938 C 407.035156 505.992188 406.640625 506.113281 406.230469 506.195312 C 405.824219 506.273438 405.414062 506.316406 405 506.316406 Z M 405 506.316406 " fill-opacity="1" fill-rule="nonzero"/><path fill="#cb6ce6" d="M 487.097656 487.371094 C 486.683594 487.371094 486.269531 487.328125 485.863281 487.25 C 485.457031 487.167969 485.0625 487.046875 484.679688 486.890625 C 484.296875 486.730469 483.933594 486.535156 483.589844 486.304688 C 483.242188 486.074219 482.925781 485.8125 482.632812 485.519531 C 482.339844 485.226562 482.078125 484.910156 481.847656 484.5625 C 481.617188 484.21875 481.421875 483.855469 481.261719 483.472656 C 481.105469 483.089844 480.984375 482.695312 480.902344 482.289062 C 480.820312 481.878906 480.78125 481.46875 480.78125 481.054688 L 480.78125 455.792969 C 480.78125 455.378906 480.820312 454.96875 480.902344 454.5625 C 480.984375 454.15625 481.105469 453.761719 481.261719 453.378906 C 481.421875 452.996094 481.617188 452.632812 481.847656 452.285156 C 482.078125 451.941406 482.339844 451.621094 482.632812 451.328125 C 482.925781 451.035156 483.242188 450.773438 483.589844 450.542969 C 483.933594 450.3125 484.296875 450.117188 484.679688 449.960938 C 485.0625 449.800781 485.457031 449.683594 485.863281 449.601562 C 486.269531 449.519531 486.683594 449.480469 487.097656 449.480469 C 487.511719 449.480469 487.921875 449.519531 488.328125 449.601562 C 488.734375 449.683594 489.128906 449.800781 489.511719 449.960938 C 489.894531 450.117188 490.261719 450.3125 490.605469 450.542969 C 490.949219 450.773438 491.269531 451.035156 491.5625 451.328125 C 491.855469 451.621094 492.117188 451.941406 492.347656 452.285156 C 492.578125 452.632812 492.773438 452.996094 492.929688 453.378906 C 493.089844 453.761719 493.210938 454.15625 493.289062 454.5625 C 493.371094 454.96875 493.410156 455.378906 493.410156 455.792969 L 493.410156 481.054688 C 493.410156 481.46875 493.371094 481.878906 493.289062 482.289062 C 493.210938 482.695312 493.089844 483.089844 492.929688 483.472656 C 492.773438 483.855469 492.578125 484.21875 492.347656 484.5625 C 492.117188 484.910156 491.855469 485.226562 491.5625 485.519531 C 491.269531 485.8125 490.949219 486.074219 490.605469 486.304688 C 490.261719 486.535156 489.898438 486.730469 489.511719 486.890625 C 489.128906 487.046875 488.734375 487.167969 488.328125 487.25 C 487.921875 487.328125 487.511719 487.371094 487.097656 487.371094 Z M 487.097656 487.371094 " fill-opacity="1" fill-rule="nonzero"/><path fill="#cb6ce6" d="M 405 354.753906 C 403.714844 354.753906 402.542969 354.394531 401.476562 353.679688 C 399.898438 352.617188 386.054688 342.929688 386.054688 329.492188 C 386.054688 316.054688 399.898438 306.367188 401.476562 305.304688 C 401.996094 304.953125 402.558594 304.6875 403.15625 304.503906 C 403.757812 304.320312 404.371094 304.230469 405 304.230469 C 405.628906 304.230469 406.242188 304.320312 406.84375 304.503906 C 407.441406 304.6875 408.003906 304.953125 408.523438 305.304688 C 410.101562 306.367188 423.945312 316.054688 423.945312 329.492188 C 423.945312 342.929688 410.101562 352.617188 408.523438 353.679688 C 407.457031 354.394531 406.285156 354.753906 405 354.753906 Z M 405 318.6875 C 403.3125 320.035156 401.925781 321.636719 400.835938 323.5 C 399.746094 325.363281 399.03125 327.363281 398.683594 329.492188 C 399.03125 331.621094 399.746094 333.621094 400.835938 335.484375 C 401.925781 337.347656 403.3125 338.949219 405 340.296875 C 406.6875 338.949219 408.074219 337.34375 409.164062 335.484375 C 410.253906 333.621094 410.96875 331.621094 411.316406 329.492188 C 410.96875 327.363281 410.253906 325.363281 409.164062 323.5 C 408.074219 321.636719 406.6875 320.03125 405 318.6875 Z M 405 318.6875 " fill-opacity="1" fill-rule="nonzero"/><path fill="#cb6ce6" d="M 405 619.988281 C 404.585938 619.988281 404.175781 619.949219 403.769531 619.867188 C 403.359375 619.785156 402.964844 619.667969 402.582031 619.507812 C 402.199219 619.347656 401.835938 619.152344 401.492188 618.925781 C 401.148438 618.695312 400.828125 618.433594 400.535156 618.136719 C 400.242188 617.84375 399.980469 617.527344 399.75 617.179688 C 399.519531 616.835938 399.324219 616.472656 399.164062 616.089844 C 399.007812 615.707031 398.886719 615.3125 398.804688 614.90625 C 398.726562 614.5 398.683594 614.085938 398.683594 613.671875 C 398.683594 596.261719 381.691406 582.097656 360.792969 582.097656 C 358.273438 582.175781 355.777344 582.472656 353.308594 582.992188 C 350.839844 583.511719 348.4375 584.242188 346.097656 585.1875 C 343.757812 586.128906 341.519531 587.273438 339.382812 588.613281 C 337.246094 589.949219 335.242188 591.46875 333.375 593.160156 C 332.917969 593.558594 332.414062 593.886719 331.863281 594.140625 C 331.3125 594.394531 330.738281 594.566406 330.136719 594.652344 C 329.539062 594.742188 328.9375 594.742188 328.339844 594.660156 C 327.738281 594.574219 327.160156 594.40625 326.609375 594.15625 C 326.058594 593.90625 325.550781 593.582031 325.09375 593.1875 C 324.632812 592.792969 324.242188 592.339844 323.910156 591.828125 C 323.582031 591.320312 323.332031 590.773438 323.160156 590.195312 C 322.988281 589.613281 322.902344 589.019531 322.902344 588.414062 C 322.902344 560.554688 339.898438 537.890625 360.792969 537.890625 C 389.125 537.890625 411.316406 571.179688 411.316406 613.671875 C 411.316406 614.085938 411.273438 614.5 411.195312 614.90625 C 411.113281 615.3125 410.992188 615.707031 410.835938 616.089844 C 410.675781 616.472656 410.480469 616.835938 410.25 617.179688 C 410.019531 617.527344 409.757812 617.84375 409.464844 618.136719 C 409.171875 618.433594 408.851562 618.695312 408.507812 618.925781 C 408.164062 619.152344 407.800781 619.347656 407.417969 619.507812 C 407.035156 619.667969 406.640625 619.785156 406.230469 619.867188 C 405.824219 619.949219 405.414062 619.988281 405 619.988281 Z M 360.792969 569.46875 C 363.589844 569.449219 366.371094 569.640625 369.136719 570.046875 C 371.90625 570.453125 374.625 571.066406 377.296875 571.886719 C 379.96875 572.707031 382.566406 573.726562 385.082031 574.945312 C 387.601562 576.160156 390.011719 577.5625 392.3125 579.148438 C 385.421875 562.046875 373.757812 550.523438 360.792969 550.523438 C 350.128906 550.523438 340.742188 561.054688 337.125 575.421875 C 340.773438 573.492188 344.597656 572.023438 348.601562 571.019531 C 352.601562 570.011719 356.667969 569.496094 360.792969 569.46875 Z M 360.792969 569.46875 " fill-opacity="1" fill-rule="nonzero"/><path fill="#cb6ce6" d="M 405 619.988281 C 364.203125 619.988281 322.902344 609.144531 322.902344 588.414062 C 322.902344 587.996094 322.945312 587.585938 323.023438 587.179688 C 323.105469 586.773438 323.226562 586.378906 323.382812 585.996094 C 323.542969 585.613281 323.738281 585.25 323.96875 584.902344 C 324.199219 584.558594 324.460938 584.242188 324.753906 583.945312 C 325.046875 583.652344 325.363281 583.390625 325.710938 583.160156 C 326.054688 582.929688 326.417969 582.738281 326.800781 582.578125 C 327.183594 582.417969 327.578125 582.300781 327.988281 582.21875 C 328.394531 582.136719 328.804688 582.097656 329.21875 582.097656 C 329.632812 582.097656 330.042969 582.136719 330.449219 582.21875 C 330.855469 582.300781 331.253906 582.417969 331.636719 582.578125 C 332.019531 582.738281 332.382812 582.929688 332.726562 583.160156 C 333.070312 583.390625 333.390625 583.652344 333.683594 583.945312 C 333.976562 584.242188 334.238281 584.558594 334.46875 584.902344 C 334.699219 585.25 334.894531 585.613281 335.054688 585.996094 C 335.210938 586.378906 335.332031 586.773438 335.414062 587.179688 C 335.492188 587.585938 335.535156 587.996094 335.535156 588.414062 C 335.535156 594.839844 360.054688 607.359375 405 607.359375 C 405.414062 607.359375 405.824219 607.398438 406.230469 607.480469 C 406.640625 607.558594 407.035156 607.679688 407.417969 607.839844 C 407.800781 607.996094 408.164062 608.191406 408.507812 608.421875 C 408.851562 608.652344 409.171875 608.914062 409.464844 609.207031 C 409.757812 609.5 410.019531 609.820312 410.25 610.164062 C 410.480469 610.507812 410.675781 610.875 410.835938 611.257812 C 410.992188 611.640625 411.113281 612.035156 411.195312 612.441406 C 411.273438 612.847656 411.316406 613.257812 411.316406 613.671875 C 411.316406 614.085938 411.273438 614.5 411.195312 614.90625 C 411.113281 615.3125 410.992188 615.707031 410.835938 616.089844 C 410.675781 616.472656 410.480469 616.835938 410.25 617.179688 C 410.019531 617.527344 409.757812 617.84375 409.464844 618.136719 C 409.171875 618.433594 408.851562 618.695312 408.507812 618.925781 C 408.164062 619.152344 407.800781 619.347656 407.417969 619.507812 C 407.035156 619.667969 406.640625 619.785156 406.230469 619.867188 C 405.824219 619.949219 405.414062 619.988281 405 619.988281 Z M 405 619.988281 " fill-opacity="1" fill-rule="nonzero"/><path fill="#cb6ce6" d="M 405 619.988281 C 404.585938 619.988281 404.175781 619.949219 403.769531 619.867188 C 403.359375 619.785156 402.964844 619.667969 402.582031 619.507812 C 402.199219 619.347656 401.835938 619.152344 401.492188 618.925781 C 401.148438 618.695312 400.828125 618.433594 400.535156 618.136719 C 400.242188 617.84375 399.980469 617.527344 399.75 617.179688 C 399.519531 616.835938 399.324219 616.472656 399.164062 616.089844 C 399.007812 615.707031 398.886719 615.3125 398.804688 614.90625 C 398.726562 614.5 398.683594 614.085938 398.683594 613.671875 C 398.683594 571.179688 420.875 537.890625 449.207031 537.890625 C 470.101562 537.890625 487.097656 560.554688 487.097656 588.414062 C 487.097656 589.019531 487.011719 589.613281 486.839844 590.195312 C 486.667969 590.773438 486.417969 591.320312 486.089844 591.828125 C 485.757812 592.339844 485.367188 592.792969 484.90625 593.1875 C 484.449219 593.582031 483.941406 593.90625 483.390625 594.15625 C 482.839844 594.40625 482.261719 594.574219 481.660156 594.660156 C 481.0625 594.742188 480.460938 594.742188 479.863281 594.652344 C 479.261719 594.566406 478.6875 594.394531 478.136719 594.140625 C 477.585938 593.886719 477.082031 593.558594 476.625 593.160156 C 474.757812 591.46875 472.753906 589.949219 470.617188 588.613281 C 468.480469 587.273438 466.242188 586.128906 463.902344 585.1875 C 461.5625 584.242188 459.160156 583.511719 456.691406 582.992188 C 454.222656 582.472656 451.726562 582.175781 449.207031 582.097656 C 428.308594 582.097656 411.316406 596.261719 411.316406 613.671875 C 411.316406 614.085938 411.273438 614.5 411.195312 614.90625 C 411.113281 615.3125 410.992188 615.707031 410.835938 616.089844 C 410.675781 616.472656 410.480469 616.835938 410.25 617.179688 C 410.019531 617.527344 409.757812 617.84375 409.464844 618.136719 C 409.171875 618.433594 408.851562 618.695312 408.507812 618.925781 C 408.164062 619.152344 407.800781 619.347656 407.417969 619.507812 C 407.035156 619.667969 406.640625 619.785156 406.230469 619.867188 C 405.824219 619.949219 405.414062 619.988281 405 619.988281 Z M 449.207031 550.523438 C 436.242188 550.523438 424.578125 562.046875 417.6875 579.148438 C 419.988281 577.5625 422.398438 576.160156 424.917969 574.945312 C 427.433594 573.726562 430.03125 572.707031 432.703125 571.886719 C 435.375 571.066406 438.09375 570.453125 440.863281 570.046875 C 443.628906 569.640625 446.410156 569.449219 449.207031 569.46875 C 453.332031 569.496094 457.398438 570.011719 461.398438 571.019531 C 465.402344 572.023438 469.226562 573.492188 472.875 575.421875 C 469.257812 561.054688 459.871094 550.523438 449.207031 550.523438 Z M 449.207031 550.523438 " fill-opacity="1" fill-rule="nonzero"/><path fill="#cb6ce6" d="M 405 619.988281 C 404.585938 619.988281 404.175781 619.949219 403.769531 619.867188 C 403.359375 619.785156 402.964844 619.667969 402.582031 619.507812 C 402.199219 619.347656 401.835938 619.152344 401.492188 618.925781 C 401.148438 618.695312 400.828125 618.433594 400.535156 618.136719 C 400.242188 617.84375 399.980469 617.527344 399.75 617.179688 C 399.519531 616.835938 399.324219 616.472656 399.164062 616.089844 C 399.007812 615.707031 398.886719 615.3125 398.804688 614.90625 C 398.726562 614.5 398.683594 614.085938 398.683594 613.671875 C 398.683594 613.257812 398.726562 612.847656 398.804688 612.441406 C 398.886719 612.035156 399.007812 611.640625 399.164062 611.257812 C 399.324219 610.875 399.519531 610.507812 399.75 610.164062 C 399.980469 609.820312 400.242188 609.5 400.535156 609.207031 C 400.828125 608.914062 401.148438 608.652344 401.492188 608.421875 C 401.835938 608.191406 402.199219 607.996094 402.582031 607.839844 C 402.964844 607.679688 403.359375 607.558594 403.769531 607.480469 C 404.175781 607.398438 404.585938 607.359375 405 607.359375 C 449.945312 607.359375 474.464844 594.839844 474.464844 588.414062 C 474.464844 587.996094 474.507812 587.585938 474.585938 587.179688 C 474.667969 586.773438 474.789062 586.378906 474.945312 585.996094 C 475.105469 585.613281 475.300781 585.25 475.53125 584.902344 C 475.761719 584.558594 476.023438 584.242188 476.316406 583.945312 C 476.609375 583.652344 476.929688 583.390625 477.273438 583.160156 C 477.617188 582.929688 477.980469 582.738281 478.363281 582.578125 C 478.746094 582.417969 479.144531 582.300781 479.550781 582.21875 C 479.957031 582.136719 480.367188 582.097656 480.78125 582.097656 C 481.195312 582.097656 481.605469 582.136719 482.011719 582.21875 C 482.421875 582.300781 482.816406 582.417969 483.199219 582.578125 C 483.582031 582.738281 483.945312 582.929688 484.289062 583.160156 C 484.636719 583.390625 484.953125 583.652344 485.246094 583.945312 C 485.539062 584.242188 485.800781 584.558594 486.03125 584.902344 C 486.261719 585.25 486.457031 585.613281 486.617188 585.996094 C 486.773438 586.378906 486.894531 586.773438 486.976562 587.179688 C 487.054688 587.585938 487.097656 587.996094 487.097656 588.414062 C 487.097656 609.144531 445.796875 619.988281 405 619.988281 Z M 405 619.988281 " fill-opacity="1" fill-rule="nonzero"/><path fill="#cb6ce6" d="M 360.792969 689.453125 C 360.378906 689.453125 359.96875 689.414062 359.5625 689.332031 C 359.15625 689.253906 358.761719 689.132812 358.378906 688.972656 C 357.996094 688.816406 357.628906 688.621094 357.285156 688.390625 C 356.941406 688.160156 356.621094 687.898438 356.328125 687.605469 C 356.035156 687.3125 355.773438 686.992188 355.542969 686.648438 C 355.3125 686.304688 355.117188 685.9375 354.960938 685.554688 C 354.800781 685.171875 354.679688 684.777344 354.601562 684.371094 C 354.519531 683.964844 354.480469 683.554688 354.480469 683.140625 C 354.480469 669.207031 340.3125 657.878906 322.902344 657.878906 C 322.332031 657.878906 321.769531 657.804688 321.21875 657.652344 C 320.667969 657.5 320.148438 657.273438 319.65625 656.980469 C 319.167969 656.6875 318.722656 656.332031 318.332031 655.921875 C 317.9375 655.507812 317.605469 655.046875 317.335938 654.542969 C 317.0625 654.039062 316.867188 653.507812 316.742188 652.949219 C 316.617188 652.394531 316.566406 651.828125 316.59375 651.257812 C 316.621094 650.6875 316.726562 650.128906 316.90625 649.585938 C 317.082031 649.042969 317.332031 648.535156 317.648438 648.058594 C 344.476562 607.820312 402.535156 607.359375 405 607.359375 C 405.695312 607.355469 406.375 607.464844 407.035156 607.6875 C 407.699219 607.910156 408.304688 608.234375 408.859375 608.65625 C 409.410156 609.082031 409.882812 609.582031 410.269531 610.160156 C 410.65625 610.742188 410.941406 611.367188 411.121094 612.039062 C 411.300781 612.714844 411.371094 613.398438 411.324219 614.09375 C 411.277344 614.789062 411.121094 615.457031 410.851562 616.101562 C 410.582031 616.746094 410.21875 617.328125 409.757812 617.851562 C 409.296875 618.375 408.761719 618.808594 408.15625 619.15625 C 407.734375 619.386719 367.109375 643.222656 367.109375 683.140625 C 367.109375 683.554688 367.070312 683.964844 366.988281 684.371094 C 366.90625 684.777344 366.789062 685.171875 366.628906 685.554688 C 366.46875 685.9375 366.273438 686.304688 366.042969 686.648438 C 365.816406 686.992188 365.550781 687.3125 365.257812 687.605469 C 364.964844 687.898438 364.648438 688.160156 364.300781 688.390625 C 363.957031 688.621094 363.59375 688.816406 363.210938 688.972656 C 362.828125 689.132812 362.433594 689.253906 362.027344 689.332031 C 361.621094 689.414062 361.207031 689.453125 360.792969 689.453125 Z M 334.902344 646.675781 C 339.378906 647.707031 343.597656 649.386719 347.558594 651.710938 C 351.523438 654.035156 355.046875 656.894531 358.136719 660.296875 C 360.675781 653.097656 364.050781 646.3125 368.257812 639.945312 C 372.46875 633.574219 377.386719 627.808594 383.011719 622.648438 C 378.523438 623.417969 374.113281 624.511719 369.785156 625.933594 C 365.457031 627.351562 361.257812 629.078125 357.183594 631.113281 C 353.109375 633.148438 349.207031 635.46875 345.472656 638.078125 C 341.738281 640.683594 338.214844 643.550781 334.902344 646.675781 Z M 334.902344 646.675781 " fill-opacity="1" fill-rule="nonzero"/><path fill="#cb6ce6" d="M 449.207031 689.453125 C 448.792969 689.453125 448.378906 689.414062 447.972656 689.332031 C 447.566406 689.253906 447.171875 689.132812 446.789062 688.972656 C 446.40625 688.816406 446.042969 688.621094 445.699219 688.390625 C 445.351562 688.160156 445.035156 687.898438 444.742188 687.605469 C 444.445312 687.3125 444.183594 686.992188 443.953125 686.648438 C 443.726562 686.304688 443.53125 685.9375 443.371094 685.554688 C 443.210938 685.171875 443.09375 684.777344 443.011719 684.371094 C 442.929688 683.964844 442.890625 683.554688 442.890625 683.140625 C 442.890625 643.0625 402.273438 619.386719 401.84375 619.15625 C 401.238281 618.808594 400.703125 618.375 400.242188 617.851562 C 399.78125 617.328125 399.417969 616.746094 399.148438 616.101562 C 398.878906 615.457031 398.722656 614.789062 398.675781 614.09375 C 398.628906 613.398438 398.699219 612.714844 398.878906 612.039062 C 399.058594 611.367188 399.34375 610.742188 399.730469 610.160156 C 400.117188 609.582031 400.589844 609.082031 401.140625 608.65625 C 401.695312 608.234375 402.300781 607.910156 402.964844 607.6875 C 403.625 607.464844 404.304688 607.355469 405 607.359375 C 407.460938 607.359375 465.523438 607.820312 492.351562 648.058594 C 492.667969 648.535156 492.917969 649.042969 493.09375 649.585938 C 493.273438 650.128906 493.378906 650.6875 493.40625 651.257812 C 493.433594 651.828125 493.382812 652.394531 493.257812 652.949219 C 493.132812 653.507812 492.9375 654.039062 492.664062 654.542969 C 492.394531 655.046875 492.0625 655.507812 491.667969 655.921875 C 491.277344 656.335938 490.832031 656.6875 490.34375 656.980469 C 489.851562 657.273438 489.332031 657.5 488.78125 657.652344 C 488.230469 657.804688 487.667969 657.878906 487.097656 657.878906 C 469.6875 657.878906 455.519531 669.207031 455.519531 683.140625 C 455.519531 683.554688 455.480469 683.964844 455.398438 684.371094 C 455.320312 684.777344 455.199219 685.171875 455.039062 685.554688 C 454.882812 685.9375 454.6875 686.304688 454.457031 686.648438 C 454.226562 686.992188 453.964844 687.3125 453.671875 687.605469 C 453.378906 687.898438 453.058594 688.160156 452.714844 688.390625 C 452.371094 688.621094 452.003906 688.816406 451.621094 688.972656 C 451.238281 689.132812 450.84375 689.253906 450.4375 689.332031 C 450.03125 689.414062 449.621094 689.453125 449.207031 689.453125 Z M 426.96875 622.648438 C 432.597656 627.808594 437.511719 633.574219 441.722656 639.945312 C 445.929688 646.3125 449.304688 653.097656 451.84375 660.296875 C 454.933594 656.894531 458.464844 654.03125 462.429688 651.707031 C 466.394531 649.382812 470.617188 647.707031 475.097656 646.675781 C 471.785156 643.550781 468.257812 640.683594 464.523438 638.074219 C 460.789062 635.464844 456.882812 633.144531 452.808594 631.109375 C 448.730469 629.074219 444.527344 627.347656 440.199219 625.929688 C 435.871094 624.511719 431.460938 623.417969 426.96875 622.648438 Z M 426.96875 622.648438 " fill-opacity="1" fill-rule="nonzero"/></svg>